<?xml version="1.0" encoding="utf-8" standalone="no"?>
<!DOCTYPE svg PUBLIC "-//W3C//DTD SVG 1.1//EN"
  "http://www.w3.org/Graphics/SVG/1.1/DTD/svg11.dtd">
<!-- Created with matplotlib (http://matplotlib.org/) -->
<svg height="345pt" version="1.1" viewBox="0 0 460 345" width="460pt" xmlns="http://www.w3.org/2000/svg" xmlns:xlink="http://www.w3.org/1999/xlink">
 <defs>
  <style type="text/css">
*{stroke-linecap:butt;stroke-linejoin:round;}
  </style>
 </defs>
 <g id="figure_1">
  <g id="patch_1">
   <path d="M 0 345.6 
L 460.8 345.6 
L 460.8 0 
L 0 0 
z
" style="fill:#ffffff;"/>
  </g>
  <g id="axes_1">
   <g id="patch_2">
    <path d="M 57.6 307.584 
L 414.72 307.584 
L 414.72 41.472 
L 57.6 41.472 
z
" style="fill:#ffffff;"/>
   </g>
   <g id="matplotlib.axis_1">
    <g id="xtick_1">
     <g id="line2d_1">
      <defs>
       <path d="M 0 0 
L 0 3.5 
" id="m9469a63f58" style="stroke:#000000;stroke-width:0.8;"/>
      </defs>
      <g>
       <use style="stroke:#000000;stroke-width:0.8;" x="73.832727" xlink:href="#m9469a63f58" y="307.584"/>
      </g>
     </g>
     <g id="text_1">
      <!-- 0 -->
      <defs>
       <path d="M 31.78125 66.40625 
Q 24.171875 66.40625 20.328125 58.90625 
Q 16.5 51.421875 16.5 36.375 
Q 16.5 21.390625 20.328125 13.890625 
Q 24.171875 6.390625 31.78125 6.390625 
Q 39.453125 6.390625 43.28125 13.890625 
Q 47.125 21.390625 47.125 36.375 
Q 47.125 51.421875 43.28125 58.90625 
Q 39.453125 66.40625 31.78125 66.40625 
z
M 31.78125 74.21875 
Q 44.046875 74.21875 50.515625 64.515625 
Q 56.984375 54.828125 56.984375 36.375 
Q 56.984375 17.96875 50.515625 8.265625 
Q 44.046875 -1.421875 31.78125 -1.421875 
Q 19.53125 -1.421875 13.0625 8.265625 
Q 6.59375 17.96875 6.59375 36.375 
Q 6.59375 54.828125 13.0625 64.515625 
Q 19.53125 74.21875 31.78125 74.21875 
z
" id="DejaVuSans-30"/>
      </defs>
      <g transform="translate(70.651477 322.182437)scale(0.1 -0.1)">
       <use xlink:href="#DejaVuSans-30"/>
      </g>
     </g>
    </g>
    <g id="xtick_2">
     <g id="line2d_2">
      <g>
       <use style="stroke:#000000;stroke-width:0.8;" x="138.828632" xlink:href="#m9469a63f58" y="307.584"/>
      </g>
     </g>
     <g id="text_2">
      <!-- 200 -->
      <defs>
       <path d="M 19.1875 8.296875 
L 53.609375 8.296875 
L 53.609375 0 
L 7.328125 0 
L 7.328125 8.296875 
Q 12.9375 14.109375 22.625 23.890625 
Q 32.328125 33.6875 34.8125 36.53125 
Q 39.546875 41.84375 41.421875 45.53125 
Q 43.3125 49.21875 43.3125 52.78125 
Q 43.3125 58.59375 39.234375 62.25 
Q 35.15625 65.921875 28.609375 65.921875 
Q 23.96875 65.921875 18.8125 64.3125 
Q 13.671875 62.703125 7.8125 59.421875 
L 7.8125 69.390625 
Q 13.765625 71.78125 18.9375 73 
Q 24.125 74.21875 28.421875 74.21875 
Q 39.75 74.21875 46.484375 68.546875 
Q 53.21875 62.890625 53.21875 53.421875 
Q 53.21875 48.921875 51.53125 44.890625 
Q 49.859375 40.875 45.40625 35.40625 
Q 44.1875 33.984375 37.640625 27.21875 
Q 31.109375 20.453125 19.1875 8.296875 
z
" id="DejaVuSans-32"/>
      </defs>
      <g transform="translate(129.284882 322.182437)scale(0.1 -0.1)">
       <use xlink:href="#DejaVuSans-32"/>
       <use x="63.623047" xlink:href="#DejaVuSans-30"/>
       <use x="127.246094" xlink:href="#DejaVuSans-30"/>
      </g>
     </g>
    </g>
    <g id="xtick_3">
     <g id="line2d_3">
      <g>
       <use style="stroke:#000000;stroke-width:0.8;" x="203.824537" xlink:href="#m9469a63f58" y="307.584"/>
      </g>
     </g>
     <g id="text_3">
      <!-- 400 -->
      <defs>
       <path d="M 37.796875 64.3125 
L 12.890625 25.390625 
L 37.796875 25.390625 
z
M 35.203125 72.90625 
L 47.609375 72.90625 
L 47.609375 25.390625 
L 58.015625 25.390625 
L 58.015625 17.1875 
L 47.609375 17.1875 
L 47.609375 0 
L 37.796875 0 
L 37.796875 17.1875 
L 4.890625 17.1875 
L 4.890625 26.703125 
z
" id="DejaVuSans-34"/>
      </defs>
      <g transform="translate(194.280787 322.182437)scale(0.1 -0.1)">
       <use xlink:href="#DejaVuSans-34"/>
       <use x="63.623047" xlink:href="#DejaVuSans-30"/>
       <use x="127.246094" xlink:href="#DejaVuSans-30"/>
      </g>
     </g>
    </g>
    <g id="xtick_4">
     <g id="line2d_4">
      <g>
       <use style="stroke:#000000;stroke-width:0.8;" x="268.820442" xlink:href="#m9469a63f58" y="307.584"/>
      </g>
     </g>
     <g id="text_4">
      <!-- 600 -->
      <defs>
       <path d="M 33.015625 40.375 
Q 26.375 40.375 22.484375 35.828125 
Q 18.609375 31.296875 18.609375 23.390625 
Q 18.609375 15.53125 22.484375 10.953125 
Q 26.375 6.390625 33.015625 6.390625 
Q 39.65625 6.390625 43.53125 10.953125 
Q 47.40625 15.53125 47.40625 23.390625 
Q 47.40625 31.296875 43.53125 35.828125 
Q 39.65625 40.375 33.015625 40.375 
z
M 52.59375 71.296875 
L 52.59375 62.3125 
Q 48.875 64.0625 45.09375 64.984375 
Q 41.3125 65.921875 37.59375 65.921875 
Q 27.828125 65.921875 22.671875 59.328125 
Q 17.53125 52.734375 16.796875 39.40625 
Q 19.671875 43.65625 24.015625 45.921875 
Q 28.375 48.1875 33.59375 48.1875 
Q 44.578125 48.1875 50.953125 41.515625 
Q 57.328125 34.859375 57.328125 23.390625 
Q 57.328125 12.15625 50.6875 5.359375 
Q 44.046875 -1.421875 33.015625 -1.421875 
Q 20.359375 -1.421875 13.671875 8.265625 
Q 6.984375 17.96875 6.984375 36.375 
Q 6.984375 53.65625 15.1875 63.9375 
Q 23.390625 74.21875 37.203125 74.21875 
Q 40.921875 74.21875 44.703125 73.484375 
Q 48.484375 72.75 52.59375 71.296875 
z
" id="DejaVuSans-36"/>
      </defs>
      <g transform="translate(259.276692 322.182437)scale(0.1 -0.1)">
       <use xlink:href="#DejaVuSans-36"/>
       <use x="63.623047" xlink:href="#DejaVuSans-30"/>
       <use x="127.246094" xlink:href="#DejaVuSans-30"/>
      </g>
     </g>
    </g>
    <g id="xtick_5">
     <g id="line2d_5">
      <g>
       <use style="stroke:#000000;stroke-width:0.8;" x="333.816347" xlink:href="#m9469a63f58" y="307.584"/>
      </g>
     </g>
     <g id="text_5">
      <!-- 800 -->
      <defs>
       <path d="M 31.78125 34.625 
Q 24.75 34.625 20.71875 30.859375 
Q 16.703125 27.09375 16.703125 20.515625 
Q 16.703125 13.921875 20.71875 10.15625 
Q 24.75 6.390625 31.78125 6.390625 
Q 38.8125 6.390625 42.859375 10.171875 
Q 46.921875 13.96875 46.921875 20.515625 
Q 46.921875 27.09375 42.890625 30.859375 
Q 38.875 34.625 31.78125 34.625 
z
M 21.921875 38.8125 
Q 15.578125 40.375 12.03125 44.71875 
Q 8.5 49.078125 8.5 55.328125 
Q 8.5 64.0625 14.71875 69.140625 
Q 20.953125 74.21875 31.78125 74.21875 
Q 42.671875 74.21875 48.875 69.140625 
Q 55.078125 64.0625 55.078125 55.328125 
Q 55.078125 49.078125 51.53125 44.71875 
Q 48 40.375 41.703125 38.8125 
Q 48.828125 37.15625 52.796875 32.3125 
Q 56.78125 27.484375 56.78125 20.515625 
Q 56.78125 9.90625 50.3125 4.234375 
Q 43.84375 -1.421875 31.78125 -1.421875 
Q 19.734375 -1.421875 13.25 4.234375 
Q 6.78125 9.90625 6.78125 20.515625 
Q 6.78125 27.484375 10.78125 32.3125 
Q 14.796875 37.15625 21.921875 38.8125 
z
M 18.3125 54.390625 
Q 18.3125 48.734375 21.84375 45.5625 
Q 25.390625 42.390625 31.78125 42.390625 
Q 38.140625 42.390625 41.71875 45.5625 
Q 45.3125 48.734375 45.3125 54.390625 
Q 45.3125 60.0625 41.71875 63.234375 
Q 38.140625 66.40625 31.78125 66.40625 
Q 25.390625 66.40625 21.84375 63.234375 
Q 18.3125 60.0625 18.3125 54.390625 
z
" id="DejaVuSans-38"/>
      </defs>
      <g transform="translate(324.272597 322.182437)scale(0.1 -0.1)">
       <use xlink:href="#DejaVuSans-38"/>
       <use x="63.623047" xlink:href="#DejaVuSans-30"/>
       <use x="127.246094" xlink:href="#DejaVuSans-30"/>
      </g>
     </g>
    </g>
    <g id="xtick_6">
     <g id="line2d_6">
      <g>
       <use style="stroke:#000000;stroke-width:0.8;" x="398.812252" xlink:href="#m9469a63f58" y="307.584"/>
      </g>
     </g>
     <g id="text_6">
      <!-- 1000 -->
      <defs>
       <path d="M 12.40625 8.296875 
L 28.515625 8.296875 
L 28.515625 63.921875 
L 10.984375 60.40625 
L 10.984375 69.390625 
L 28.421875 72.90625 
L 38.28125 72.90625 
L 38.28125 8.296875 
L 54.390625 8.296875 
L 54.390625 0 
L 12.40625 0 
z
" id="DejaVuSans-31"/>
      </defs>
      <g transform="translate(386.087252 322.182437)scale(0.1 -0.1)">
       <use xlink:href="#DejaVuSans-31"/>
       <use x="63.623047" xlink:href="#DejaVuSans-30"/>
       <use x="127.246094" xlink:href="#DejaVuSans-30"/>
       <use x="190.869141" xlink:href="#DejaVuSans-30"/>
      </g>
     </g>
    </g>
    <g id="text_7">
     <!-- Cycles -->
     <defs>
      <path d="M 64.40625 67.28125 
L 64.40625 56.890625 
Q 59.421875 61.53125 53.78125 63.8125 
Q 48.140625 66.109375 41.796875 66.109375 
Q 29.296875 66.109375 22.65625 58.46875 
Q 16.015625 50.828125 16.015625 36.375 
Q 16.015625 21.96875 22.65625 14.328125 
Q 29.296875 6.6875 41.796875 6.6875 
Q 48.140625 6.6875 53.78125 8.984375 
Q 59.421875 11.28125 64.40625 15.921875 
L 64.40625 5.609375 
Q 59.234375 2.09375 53.4375 0.328125 
Q 47.65625 -1.421875 41.21875 -1.421875 
Q 24.65625 -1.421875 15.125 8.703125 
Q 5.609375 18.84375 5.609375 36.375 
Q 5.609375 53.953125 15.125 64.078125 
Q 24.65625 74.21875 41.21875 74.21875 
Q 47.75 74.21875 53.53125 72.484375 
Q 59.328125 70.75 64.40625 67.28125 
z
" id="DejaVuSans-43"/>
      <path d="M 32.171875 -5.078125 
Q 28.375 -14.84375 24.75 -17.8125 
Q 21.140625 -20.796875 15.09375 -20.796875 
L 7.90625 -20.796875 
L 7.90625 -13.28125 
L 13.1875 -13.28125 
Q 16.890625 -13.28125 18.9375 -11.515625 
Q 21 -9.765625 23.484375 -3.21875 
L 25.09375 0.875 
L 2.984375 54.6875 
L 12.5 54.6875 
L 29.59375 11.921875 
L 46.6875 54.6875 
L 56.203125 54.6875 
z
" id="DejaVuSans-79"/>
      <path d="M 48.78125 52.59375 
L 48.78125 44.1875 
Q 44.96875 46.296875 41.140625 47.34375 
Q 37.3125 48.390625 33.40625 48.390625 
Q 24.65625 48.390625 19.8125 42.84375 
Q 14.984375 37.3125 14.984375 27.296875 
Q 14.984375 17.28125 19.8125 11.734375 
Q 24.65625 6.203125 33.40625 6.203125 
Q 37.3125 6.203125 41.140625 7.25 
Q 44.96875 8.296875 48.78125 10.40625 
L 48.78125 2.09375 
Q 45.015625 0.34375 40.984375 -0.53125 
Q 36.96875 -1.421875 32.421875 -1.421875 
Q 20.0625 -1.421875 12.78125 6.34375 
Q 5.515625 14.109375 5.515625 27.296875 
Q 5.515625 40.671875 12.859375 48.328125 
Q 20.21875 56 33.015625 56 
Q 37.15625 56 41.109375 55.140625 
Q 45.0625 54.296875 48.78125 52.59375 
z
" id="DejaVuSans-63"/>
      <path d="M 9.421875 75.984375 
L 18.40625 75.984375 
L 18.40625 0 
L 9.421875 0 
z
" id="DejaVuSans-6c"/>
      <path d="M 56.203125 29.59375 
L 56.203125 25.203125 
L 14.890625 25.203125 
Q 15.484375 15.921875 20.484375 11.0625 
Q 25.484375 6.203125 34.421875 6.203125 
Q 39.59375 6.203125 44.453125 7.46875 
Q 49.3125 8.734375 54.109375 11.28125 
L 54.109375 2.78125 
Q 49.265625 0.734375 44.1875 -0.34375 
Q 39.109375 -1.421875 33.890625 -1.421875 
Q 20.796875 -1.421875 13.15625 6.1875 
Q 5.515625 13.8125 5.515625 26.8125 
Q 5.515625 40.234375 12.765625 48.109375 
Q 20.015625 56 32.328125 56 
Q 43.359375 56 49.78125 48.890625 
Q 56.203125 41.796875 56.203125 29.59375 
z
M 47.21875 32.234375 
Q 47.125 39.59375 43.09375 43.984375 
Q 39.0625 48.390625 32.421875 48.390625 
Q 24.90625 48.390625 20.390625 44.140625 
Q 15.875 39.890625 15.1875 32.171875 
z
" id="DejaVuSans-65"/>
      <path d="M 44.28125 53.078125 
L 44.28125 44.578125 
Q 40.484375 46.53125 36.375 47.5 
Q 32.28125 48.484375 27.875 48.484375 
Q 21.1875 48.484375 17.84375 46.4375 
Q 14.5 44.390625 14.5 40.28125 
Q 14.5 37.15625 16.890625 35.375 
Q 19.28125 33.59375 26.515625 31.984375 
L 29.59375 31.296875 
Q 39.15625 29.25 43.1875 25.515625 
Q 47.21875 21.78125 47.21875 15.09375 
Q 47.21875 7.46875 41.1875 3.015625 
Q 35.15625 -1.421875 24.609375 -1.421875 
Q 20.21875 -1.421875 15.453125 -0.5625 
Q 10.6875 0.296875 5.421875 2 
L 5.421875 11.28125 
Q 10.40625 8.6875 15.234375 7.390625 
Q 20.0625 6.109375 24.8125 6.109375 
Q 31.15625 6.109375 34.5625 8.28125 
Q 37.984375 10.453125 37.984375 14.40625 
Q 37.984375 18.0625 35.515625 20.015625 
Q 33.0625 21.96875 24.703125 23.78125 
L 21.578125 24.515625 
Q 13.234375 26.265625 9.515625 29.90625 
Q 5.8125 33.546875 5.8125 39.890625 
Q 5.8125 47.609375 11.28125 51.796875 
Q 16.75 56 26.8125 56 
Q 31.78125 56 36.171875 55.265625 
Q 40.578125 54.546875 44.28125 53.078125 
z
" id="DejaVuSans-73"/>
     </defs>
     <g transform="translate(219.889688 335.860562)scale(0.1 -0.1)">
      <use xlink:href="#DejaVuSans-43"/>
      <use x="69.824219" xlink:href="#DejaVuSans-79"/>
      <use x="129.003906" xlink:href="#DejaVuSans-63"/>
      <use x="183.984375" xlink:href="#DejaVuSans-6c"/>
      <use x="211.767578" xlink:href="#DejaVuSans-65"/>
      <use x="273.291016" xlink:href="#DejaVuSans-73"/>
     </g>
    </g>
   </g>
   <g id="matplotlib.axis_2">
    <g id="ytick_1">
     <g id="line2d_7">
      <defs>
       <path d="M 0 0 
L -3.5 0 
" id="m6fcbadf68a" style="stroke:#000000;stroke-width:0.8;"/>
      </defs>
      <g>
       <use style="stroke:#000000;stroke-width:0.8;" x="57.6" xlink:href="#m6fcbadf68a" y="295.488"/>
      </g>
     </g>
     <g id="text_8">
      <!-- 0 -->
      <g transform="translate(44.2375 299.287219)scale(0.1 -0.1)">
       <use xlink:href="#DejaVuSans-30"/>
      </g>
     </g>
    </g>
    <g id="ytick_2">
     <g id="line2d_8">
      <g>
       <use style="stroke:#000000;stroke-width:0.8;" x="57.6" xlink:href="#m6fcbadf68a" y="247.104"/>
      </g>
     </g>
     <g id="text_9">
      <!-- 20 -->
      <g transform="translate(37.875 250.903219)scale(0.1 -0.1)">
       <use xlink:href="#DejaVuSans-32"/>
       <use x="63.623047" xlink:href="#DejaVuSans-30"/>
      </g>
     </g>
    </g>
    <g id="ytick_3">
     <g id="line2d_9">
      <g>
       <use style="stroke:#000000;stroke-width:0.8;" x="57.6" xlink:href="#m6fcbadf68a" y="198.72"/>
      </g>
     </g>
     <g id="text_10">
      <!-- 40 -->
      <g transform="translate(37.875 202.519219)scale(0.1 -0.1)">
       <use xlink:href="#DejaVuSans-34"/>
       <use x="63.623047" xlink:href="#DejaVuSans-30"/>
      </g>
     </g>
    </g>
    <g id="ytick_4">
     <g id="line2d_10">
      <g>
       <use style="stroke:#000000;stroke-width:0.8;" x="57.6" xlink:href="#m6fcbadf68a" y="150.336"/>
      </g>
     </g>
     <g id="text_11">
      <!-- 60 -->
      <g transform="translate(37.875 154.135219)scale(0.1 -0.1)">
       <use xlink:href="#DejaVuSans-36"/>
       <use x="63.623047" xlink:href="#DejaVuSans-30"/>
      </g>
     </g>
    </g>
    <g id="ytick_5">
     <g id="line2d_11">
      <g>
       <use style="stroke:#000000;stroke-width:0.8;" x="57.6" xlink:href="#m6fcbadf68a" y="101.952"/>
      </g>
     </g>
     <g id="text_12">
      <!-- 80 -->
      <g transform="translate(37.875 105.751219)scale(0.1 -0.1)">
       <use xlink:href="#DejaVuSans-38"/>
       <use x="63.623047" xlink:href="#DejaVuSans-30"/>
      </g>
     </g>
    </g>
    <g id="ytick_6">
     <g id="line2d_12">
      <g>
       <use style="stroke:#000000;stroke-width:0.8;" x="57.6" xlink:href="#m6fcbadf68a" y="53.568"/>
      </g>
     </g>
     <g id="text_13">
      <!-- 100 -->
      <g transform="translate(31.5125 57.367219)scale(0.1 -0.1)">
       <use xlink:href="#DejaVuSans-31"/>
       <use x="63.623047" xlink:href="#DejaVuSans-30"/>
       <use x="127.246094" xlink:href="#DejaVuSans-30"/>
      </g>
     </g>
    </g>
    <g id="text_14">
     <!-- CPU usage -->
     <defs>
      <path d="M 19.671875 64.796875 
L 19.671875 37.40625 
L 32.078125 37.40625 
Q 38.96875 37.40625 42.71875 40.96875 
Q 46.484375 44.53125 46.484375 51.125 
Q 46.484375 57.671875 42.71875 61.234375 
Q 38.96875 64.796875 32.078125 64.796875 
z
M 9.8125 72.90625 
L 32.078125 72.90625 
Q 44.34375 72.90625 50.609375 67.359375 
Q 56.890625 61.8125 56.890625 51.125 
Q 56.890625 40.328125 50.609375 34.8125 
Q 44.34375 29.296875 32.078125 29.296875 
L 19.671875 29.296875 
L 19.671875 0 
L 9.8125 0 
z
" id="DejaVuSans-50"/>
      <path d="M 8.6875 72.90625 
L 18.609375 72.90625 
L 18.609375 28.609375 
Q 18.609375 16.890625 22.84375 11.734375 
Q 27.09375 6.59375 36.625 6.59375 
Q 46.09375 6.59375 50.34375 11.734375 
Q 54.59375 16.890625 54.59375 28.609375 
L 54.59375 72.90625 
L 64.5 72.90625 
L 64.5 27.390625 
Q 64.5 13.140625 57.4375 5.859375 
Q 50.390625 -1.421875 36.625 -1.421875 
Q 22.796875 -1.421875 15.734375 5.859375 
Q 8.6875 13.140625 8.6875 27.390625 
z
" id="DejaVuSans-55"/>
      <path id="DejaVuSans-20"/>
      <path d="M 8.5 21.578125 
L 8.5 54.6875 
L 17.484375 54.6875 
L 17.484375 21.921875 
Q 17.484375 14.15625 20.5 10.265625 
Q 23.53125 6.390625 29.59375 6.390625 
Q 36.859375 6.390625 41.078125 11.03125 
Q 45.3125 15.671875 45.3125 23.6875 
L 45.3125 54.6875 
L 54.296875 54.6875 
L 54.296875 0 
L 45.3125 0 
L 45.3125 8.40625 
Q 42.046875 3.421875 37.71875 1 
Q 33.40625 -1.421875 27.6875 -1.421875 
Q 18.265625 -1.421875 13.375 4.4375 
Q 8.5 10.296875 8.5 21.578125 
z
M 31.109375 56 
z
" id="DejaVuSans-75"/>
      <path d="M 34.28125 27.484375 
Q 23.390625 27.484375 19.1875 25 
Q 14.984375 22.515625 14.984375 16.5 
Q 14.984375 11.71875 18.140625 8.90625 
Q 21.296875 6.109375 26.703125 6.109375 
Q 34.1875 6.109375 38.703125 11.40625 
Q 43.21875 16.703125 43.21875 25.484375 
L 43.21875 27.484375 
z
M 52.203125 31.203125 
L 52.203125 0 
L 43.21875 0 
L 43.21875 8.296875 
Q 40.140625 3.328125 35.546875 0.953125 
Q 30.953125 -1.421875 24.3125 -1.421875 
Q 15.921875 -1.421875 10.953125 3.296875 
Q 6 8.015625 6 15.921875 
Q 6 25.140625 12.171875 29.828125 
Q 18.359375 34.515625 30.609375 34.515625 
L 43.21875 34.515625 
L 43.21875 35.40625 
Q 43.21875 41.609375 39.140625 45 
Q 35.0625 48.390625 27.6875 48.390625 
Q 23 48.390625 18.546875 47.265625 
Q 14.109375 46.140625 10.015625 43.890625 
L 10.015625 52.203125 
Q 14.9375 54.109375 19.578125 55.046875 
Q 24.21875 56 28.609375 56 
Q 40.484375 56 46.34375 49.84375 
Q 52.203125 43.703125 52.203125 31.203125 
z
" id="DejaVuSans-61"/>
      <path d="M 45.40625 27.984375 
Q 45.40625 37.75 41.375 43.109375 
Q 37.359375 48.484375 30.078125 48.484375 
Q 22.859375 48.484375 18.828125 43.109375 
Q 14.796875 37.75 14.796875 27.984375 
Q 14.796875 18.265625 18.828125 12.890625 
Q 22.859375 7.515625 30.078125 7.515625 
Q 37.359375 7.515625 41.375 12.890625 
Q 45.40625 18.265625 45.40625 27.984375 
z
M 54.390625 6.78125 
Q 54.390625 -7.171875 48.1875 -13.984375 
Q 42 -20.796875 29.203125 -20.796875 
Q 24.46875 -20.796875 20.265625 -20.09375 
Q 16.0625 -19.390625 12.109375 -17.921875 
L 12.109375 -9.1875 
Q 16.0625 -11.328125 19.921875 -12.34375 
Q 23.78125 -13.375 27.78125 -13.375 
Q 36.625 -13.375 41.015625 -8.765625 
Q 45.40625 -4.15625 45.40625 5.171875 
L 45.40625 9.625 
Q 42.625 4.78125 38.28125 2.390625 
Q 33.9375 0 27.875 0 
Q 17.828125 0 11.671875 7.65625 
Q 5.515625 15.328125 5.515625 27.984375 
Q 5.515625 40.671875 11.671875 48.328125 
Q 17.828125 56 27.875 56 
Q 33.9375 56 38.28125 53.609375 
Q 42.625 51.21875 45.40625 46.390625 
L 45.40625 54.6875 
L 54.390625 54.6875 
z
" id="DejaVuSans-67"/>
     </defs>
     <g transform="translate(25.432812 201.370969)rotate(-90)scale(0.1 -0.1)">
      <use xlink:href="#DejaVuSans-43"/>
      <use x="69.824219" xlink:href="#DejaVuSans-50"/>
      <use x="130.126953" xlink:href="#DejaVuSans-55"/>
      <use x="203.320312" xlink:href="#DejaVuSans-20"/>
      <use x="235.107422" xlink:href="#DejaVuSans-75"/>
      <use x="298.486328" xlink:href="#DejaVuSans-73"/>
      <use x="350.585938" xlink:href="#DejaVuSans-61"/>
      <use x="411.865234" xlink:href="#DejaVuSans-67"/>
      <use x="475.341797" xlink:href="#DejaVuSans-65"/>
     </g>
    </g>
   </g>
   <g id="line2d_13">
    <path clip-path="url(#pbecb224907)" d="M 73.832727 255.5712 
L 74.157707 174.528 
L 74.482686 155.41632 
L 74.807666 53.568 
L 75.132645 150.336 
L 75.457625 53.568 
L 75.782604 53.568 
L 76.432563 295.488 
L 76.757543 53.568 
L 77.082523 167.51232 
L 77.407502 53.568 
L 78.057461 53.568 
L 78.382441 174.528 
L 78.70742 53.568 
L 79.0324 53.568 
L 79.357379 202.3488 
L 79.682359 247.104 
L 80.007338 53.568 
L 80.657297 229.44384 
L 80.982277 53.568 
L 81.957215 53.568 
L 82.282195 295.488 
L 82.607174 53.568 
L 82.932154 160.98048 
L 83.257133 182.51136 
L 83.582113 53.568 
L 83.907093 53.568 
L 84.232072 167.51232 
L 84.557052 53.568 
L 86.506929 53.568 
L 86.831908 174.528 
L 87.156888 53.568 
L 87.481867 53.568 
L 87.806847 229.44384 
L 88.131826 53.568 
L 88.456806 53.568 
L 88.781785 295.488 
L 89.106765 53.568 
L 90.081704 53.568 
L 90.406683 295.488 
L 90.731663 268.63488 
L 91.056642 53.568 
L 93.331499 53.568 
L 93.656478 160.98048 
L 93.981458 53.568 
L 96.906274 53.568 
L 97.231253 120.33792 
L 97.556233 214.92864 
L 97.881212 53.568 
L 98.531171 53.568 
L 98.856151 182.51136 
L 99.18113 53.568 
L 99.50611 202.3488 
L 99.831089 145.73952 
L 100.156069 53.568 
L 101.455987 53.568 
L 101.780966 160.98048 
L 102.105946 53.568 
L 102.755905 53.568 
L 103.080885 295.488 
L 103.405864 53.568 
L 104.705782 53.568 
L 105.030762 155.41632 
L 105.355741 53.568 
L 105.680721 53.568 
L 106.0057 174.528 
L 106.33068 53.568 
L 106.980639 53.568 
L 107.305618 145.73952 
L 107.630598 53.568 
L 108.280557 53.568 
L 108.605536 202.3488 
L 108.930516 53.568 
L 109.255495 53.568 
L 109.580475 295.488 
L 109.905455 53.568 
L 110.555414 53.568 
L 110.880393 167.51232 
L 111.205373 53.568 
L 112.180311 53.568 
L 112.505291 150.336 
L 112.83027 53.568 
L 113.15525 53.568 
L 113.480229 150.336 
L 113.805209 53.568 
L 115.105127 53.568 
L 115.430106 174.528 
L 115.755086 53.568 
L 116.080066 182.51136 
L 116.405045 53.568 
L 117.055004 53.568 
L 117.379984 174.528 
L 117.704963 214.92864 
L 118.029943 53.568 
L 120.629779 53.568 
L 120.954758 182.51136 
L 121.279738 53.568 
L 122.579656 53.568 
L 122.904636 145.73952 
L 123.229615 53.568 
L 123.554595 53.568 
L 123.879574 174.528 
L 124.204554 53.568 
L 124.529533 53.568 
L 124.854513 214.92864 
L 125.179492 53.568 
L 125.504472 53.568 
L 125.829451 155.41632 
L 126.154431 53.568 
L 126.80439 53.568 
L 127.129369 160.98048 
L 127.454349 53.568 
L 128.104308 53.568 
L 128.429287 167.51232 
L 128.754267 53.568 
L 129.079247 53.568 
L 129.404226 174.528 
L 129.729206 53.568 
L 130.704144 53.568 
L 131.029124 150.336 
L 131.354103 53.568 
L 131.679083 174.528 
L 132.004062 53.568 
L 132.329042 141.62688 
L 132.654021 53.568 
L 132.979001 167.51232 
L 133.30398 53.568 
L 134.928878 53.568 
L 135.253857 141.62688 
L 135.578837 53.568 
L 135.903817 191.70432 
L 136.228796 53.568 
L 137.853694 53.568 
L 138.178673 191.70432 
L 138.503653 53.568 
L 139.803571 53.568 
L 140.12855 191.70432 
L 140.45353 53.568 
L 140.778509 53.568 
L 141.428468 247.104 
L 141.753448 53.568 
L 142.403407 53.568 
L 142.728387 160.98048 
L 143.053366 53.568 
L 143.703325 53.568 
L 144.028305 268.63488 
L 144.353284 53.568 
L 145.003243 53.568 
L 145.328223 167.51232 
L 145.653202 53.568 
L 146.95312 53.568 
L 147.2781 214.92864 
L 147.603079 53.568 
L 147.928059 191.70432 
L 148.253038 53.568 
L 149.877936 53.568 
L 150.202916 150.336 
L 150.527895 53.568 
L 150.852875 160.98048 
L 151.177854 53.568 
L 151.827813 53.568 
L 152.152793 295.488 
L 152.477772 53.568 
L 153.452711 53.568 
L 153.77769 247.104 
L 154.10267 53.568 
L 154.752629 53.568 
L 155.077609 145.73952 
L 155.402588 53.568 
L 156.702506 53.568 
L 157.027486 145.73952 
L 157.352465 53.568 
L 157.677445 247.104 
L 158.002424 53.568 
L 158.977363 53.568 
L 159.302342 137.75616 
L 159.627322 53.568 
L 161.902179 53.568 
L 162.227158 191.70432 
L 162.552138 53.568 
L 162.877117 53.568 
L 163.202097 160.98048 
L 163.527076 53.568 
L 165.476953 53.568 
L 165.801933 150.336 
L 166.126912 53.568 
L 166.451892 53.568 
L 166.776871 150.336 
L 167.101851 53.568 
L 167.42683 174.528 
L 167.75181 53.568 
L 168.726749 53.568 
L 169.051728 182.51136 
L 169.376708 53.568 
L 169.701687 191.70432 
L 170.026667 53.568 
L 171.976544 53.568 
L 172.301523 182.51136 
L 172.626503 53.568 
L 173.276462 53.568 
L 173.601441 155.41632 
L 173.926421 53.568 
L 177.501196 53.568 
L 177.826175 160.98048 
L 178.151155 53.568 
L 178.476134 53.568 
L 178.801114 167.51232 
L 179.126093 53.568 
L 179.451073 167.51232 
L 179.776052 53.568 
L 180.426011 53.568 
L 180.750991 295.488 
L 181.075971 53.568 
L 183.025848 53.568 
L 183.350827 150.336 
L 183.675807 53.568 
L 184.000786 53.568 
L 184.325766 295.488 
L 184.650745 53.568 
L 185.300704 53.568 
L 185.625684 167.51232 
L 185.950663 53.568 
L 187.250581 53.568 
L 187.575561 174.528 
L 187.900541 53.568 
L 188.22552 268.63488 
L 188.5505 53.568 
L 188.875479 167.51232 
L 189.200459 53.568 
L 190.500377 53.568 
L 190.825356 145.73952 
L 191.150336 53.568 
L 192.125274 53.568 
L 192.450254 182.51136 
L 192.775233 53.568 
L 193.425192 53.568 
L 193.750172 174.528 
L 194.075152 53.568 
L 195.05009 53.568 
L 195.37507 160.98048 
L 195.700049 53.568 
L 196.025029 53.568 
L 196.350008 268.63488 
L 196.674988 53.568 
L 198.299885 53.568 
L 198.624865 191.70432 
L 198.949844 53.568 
L 200.574742 53.568 
L 200.899722 145.73952 
L 201.224701 53.568 
L 203.174578 53.568 
L 203.499558 191.70432 
L 203.824537 53.568 
L 204.474496 53.568 
L 204.799476 174.528 
L 205.124455 53.568 
L 207.074333 53.568 
L 207.399312 202.3488 
L 207.724292 53.568 
L 209.349189 53.568 
L 209.674169 182.51136 
L 209.999148 53.568 
L 210.649107 53.568 
L 210.974087 295.488 
L 211.299066 53.568 
L 211.624046 53.568 
L 211.949025 145.73952 
L 212.274005 53.568 
L 212.598984 53.568 
L 212.923964 167.51232 
L 213.248943 53.568 
L 214.223882 53.568 
L 214.548862 295.488 
L 214.873841 53.568 
L 215.198821 160.98048 
L 215.5238 53.568 
L 215.84878 53.568 
L 216.173759 167.51232 
L 216.498739 155.41632 
L 216.823718 53.568 
L 217.148698 182.51136 
L 217.473677 53.568 
L 217.798657 145.73952 
L 218.123636 53.568 
L 218.448616 53.568 
L 218.773595 214.92864 
L 219.098575 53.568 
L 219.423554 295.488 
L 219.748534 53.568 
L 220.073514 202.3488 
L 220.398493 53.568 
L 220.723473 53.568 
L 221.048452 247.104 
L 221.373432 53.568 
L 222.998329 53.568 
L 223.323309 191.70432 
L 223.648288 53.568 
L 224.623227 53.568 
L 224.948206 167.51232 
L 225.273186 53.568 
L 225.598165 174.528 
L 225.923145 247.104 
L 226.248124 53.568 
L 226.898084 53.568 
L 227.223063 167.51232 
L 227.548043 53.568 
L 227.873022 53.568 
L 228.198002 247.104 
L 228.522981 53.568 
L 228.847961 160.98048 
L 229.17294 53.568 
L 229.49792 141.62688 
L 229.822899 53.568 
L 232.097756 53.568 
L 232.422735 145.73952 
L 232.747715 53.568 
L 233.072695 247.104 
L 233.397674 53.568 
L 233.722654 295.488 
L 234.047633 53.568 
L 235.347551 53.568 
L 235.672531 268.63488 
L 235.99751 53.568 
L 236.972449 53.568 
L 237.622408 268.63488 
L 237.947387 53.568 
L 238.597346 53.568 
L 238.922326 137.75616 
L 239.247305 53.568 
L 239.572285 214.92864 
L 239.897265 53.568 
L 240.547224 53.568 
L 240.872203 191.70432 
L 241.197183 53.568 
L 244.446978 53.568 
L 244.771957 202.3488 
L 245.096937 53.568 
L 245.421916 53.568 
L 245.746896 167.51232 
L 246.071876 53.568 
L 246.396855 174.528 
L 246.721835 53.568 
L 247.046814 53.568 
L 247.371794 160.98048 
L 247.696773 53.568 
L 248.671712 53.568 
L 248.996691 191.70432 
L 249.321671 53.568 
L 250.296609 53.568 
L 250.621589 214.92864 
L 250.946568 53.568 
L 251.271548 167.51232 
L 251.596527 53.568 
L 252.571466 53.568 
L 252.896446 295.488 
L 253.221425 53.568 
L 254.196364 53.568 
L 254.521343 229.44384 
L 254.846323 53.568 
L 257.121179 53.568 
L 257.446159 174.528 
L 257.771138 53.568 
L 258.096118 160.98048 
L 258.421097 53.568 
L 259.071057 53.568 
L 259.396036 202.3488 
L 259.721016 155.41632 
L 260.045995 53.568 
L 260.695954 53.568 
L 261.020934 167.51232 
L 261.345913 53.568 
L 261.670893 214.92864 
L 261.995872 53.568 
L 262.645831 53.568 
L 262.970811 155.41632 
L 263.29579 53.568 
L 263.945749 53.568 
L 264.270729 229.44384 
L 264.595708 53.568 
L 264.920688 167.51232 
L 265.245667 53.568 
L 265.570647 53.568 
L 265.895627 167.51232 
L 266.220606 53.568 
L 267.845504 53.568 
L 268.170483 229.44384 
L 268.495463 53.568 
L 268.820442 53.568 
L 269.145422 160.98048 
L 269.470401 53.568 
L 272.720197 53.568 
L 273.045176 182.51136 
L 273.370156 53.568 
L 274.345094 53.568 
L 274.670074 247.104 
L 274.995053 53.568 
L 275.320033 160.98048 
L 275.645012 53.568 
L 275.969992 53.568 
L 276.294971 214.92864 
L 276.619951 53.568 
L 276.94493 174.528 
L 277.26991 53.568 
L 279.219787 53.568 
L 279.544767 145.73952 
L 279.869746 53.568 
L 280.194726 53.568 
L 280.519705 174.528 
L 280.844685 53.568 
L 282.469582 53.568 
L 282.794562 167.51232 
L 283.119541 53.568 
L 284.744439 53.568 
L 285.069419 167.51232 
L 285.394398 53.568 
L 286.694316 53.568 
L 287.019296 160.98048 
L 287.344275 53.568 
L 287.994234 53.568 
L 288.319214 174.528 
L 288.644193 53.568 
L 288.969173 174.528 
L 289.294152 53.568 
L 289.619132 295.488 
L 289.944111 53.568 
L 290.91905 53.568 
L 291.244029 229.44384 
L 291.569009 53.568 
L 291.893989 155.41632 
L 292.218968 53.568 
L 292.543948 53.568 
L 292.868927 214.92864 
L 293.193907 53.568 
L 293.518886 53.568 
L 293.843866 191.70432 
L 294.168845 53.568 
L 294.493825 53.568 
L 294.818804 167.51232 
L 295.143784 53.568 
L 296.118722 53.568 
L 296.443702 155.41632 
L 296.768681 53.568 
L 298.0686 53.568 
L 298.393579 155.41632 
L 298.718559 53.568 
L 300.668436 53.568 
L 300.993415 160.98048 
L 301.318395 53.568 
L 302.618313 53.568 
L 302.943292 155.41632 
L 303.268272 53.568 
L 303.593251 160.98048 
L 303.918231 53.568 
L 305.218149 53.568 
L 305.543129 229.44384 
L 305.868108 53.568 
L 306.518067 53.568 
L 306.843047 160.98048 
L 307.168026 53.568 
L 307.493006 53.568 
L 307.817985 145.73952 
L 308.142965 53.568 
L 308.467944 160.98048 
L 308.792924 182.51136 
L 309.117903 53.568 
L 311.067781 53.568 
L 311.39276 141.62688 
L 311.71774 53.568 
L 313.992596 53.568 
L 314.317576 229.44384 
L 314.642555 53.568 
L 315.617494 53.568 
L 315.942473 295.488 
L 316.267453 53.568 
L 317.242391 53.568 
L 317.567371 160.98048 
L 317.892351 174.528 
L 318.21733 53.568 
L 318.54231 53.568 
L 318.867289 268.63488 
L 319.192269 53.568 
L 319.517248 53.568 
L 319.842228 167.51232 
L 320.167207 53.568 
L 320.817166 53.568 
L 321.142146 145.73952 
L 321.467125 53.568 
L 323.092023 53.568 
L 323.417002 191.70432 
L 323.741982 182.51136 
L 324.066962 53.568 
L 324.716921 53.568 
L 325.0419 160.98048 
L 325.36688 53.568 
L 325.691859 167.51232 
L 326.016839 53.568 
L 326.341818 174.528 
L 326.666798 53.568 
L 327.316757 53.568 
L 327.641736 229.44384 
L 327.966716 53.568 
L 329.916593 53.568 
L 330.241572 182.51136 
L 330.566552 167.51232 
L 330.891532 53.568 
L 331.541491 53.568 
L 331.86647 229.44384 
L 332.19145 53.568 
L 333.166388 53.568 
L 333.491368 167.51232 
L 333.816347 53.568 
L 335.441245 53.568 
L 335.766224 257.26464 
L 336.091204 53.568 
L 336.416183 53.568 
L 336.741163 295.488 
L 337.066143 53.568 
L 338.366061 53.568 
L 338.69104 268.63488 
L 339.01602 53.568 
L 339.990958 53.568 
L 340.315938 295.488 
L 340.640917 141.62688 
L 340.965897 268.63488 
L 341.290876 53.568 
L 342.590794 53.568 
L 342.915774 174.528 
L 343.240753 53.568 
L 343.890713 53.568 
L 344.215692 182.51136 
L 344.540672 53.568 
L 344.865651 182.51136 
L 345.190631 53.568 
L 345.51561 247.104 
L 345.84059 53.568 
L 346.815528 53.568 
L 347.140508 182.51136 
L 347.465487 53.568 
L 348.765405 53.568 
L 349.090385 167.51232 
L 349.415364 53.568 
L 350.390303 53.568 
L 350.715283 167.51232 
L 351.040262 53.568 
L 353.640098 53.568 
L 353.965078 295.488 
L 354.290057 214.92864 
L 354.615037 167.51232 
L 354.940016 295.488 
L 355.264996 53.568 
L 355.589975 191.70432 
L 355.914955 53.568 
L 357.864832 53.568 
L 358.189812 268.63488 
L 358.514791 53.568 
L 358.839771 191.70432 
L 359.16475 53.568 
L 359.48973 53.568 
L 359.814709 229.44384 
L 360.139689 53.568 
L 360.464668 53.568 
L 360.789648 174.528 
L 361.114627 53.568 
L 361.439607 53.568 
L 361.764586 160.98048 
L 362.089566 53.568 
L 364.039443 53.568 
L 364.364423 247.104 
L 364.689402 53.568 
L 365.98932 53.568 
L 366.3143 174.528 
L 366.639279 53.568 
L 366.964259 53.568 
L 367.289238 182.51136 
L 367.614218 53.568 
L 368.589156 53.568 
L 368.914136 174.528 
L 369.239115 53.568 
L 369.889075 53.568 
L 370.214054 191.70432 
L 370.539034 53.568 
L 370.864013 229.44384 
L 371.188993 53.568 
L 371.838952 53.568 
L 372.163931 167.51232 
L 372.488911 53.568 
L 373.13887 53.568 
L 373.463849 167.51232 
L 373.788829 174.528 
L 374.113808 53.568 
L 375.413726 53.568 
L 375.738706 268.63488 
L 376.063686 229.44384 
L 376.388665 53.568 
L 378.663522 53.568 
L 378.988501 167.51232 
L 379.313481 53.568 
L 379.63846 53.568 
L 379.96344 160.98048 
L 380.288419 53.568 
L 380.938378 53.568 
L 381.263358 174.528 
L 381.588337 53.568 
L 382.563276 53.568 
L 382.888256 214.92864 
L 383.213235 53.568 
L 383.538215 214.92864 
L 383.863194 53.568 
L 384.188174 229.44384 
L 384.513153 53.568 
L 386.46303 53.568 
L 386.78801 229.44384 
L 387.112989 53.568 
L 388.737887 53.568 
L 389.062867 295.488 
L 389.387846 53.568 
L 389.712826 295.488 
L 390.037805 53.568 
L 390.687764 53.568 
L 391.012744 295.488 
L 391.337723 53.568 
L 392.312662 53.568 
L 392.637641 174.528 
L 392.962621 53.568 
L 394.262539 53.568 
L 394.587518 182.51136 
L 394.912498 53.568 
L 395.237477 53.568 
L 395.562457 229.44384 
L 395.887437 53.568 
L 397.512334 53.568 
L 397.837314 214.92864 
L 398.162293 53.568 
L 398.487273 53.568 
L 398.487273 53.568 
" style="fill:none;stroke:#1f77b4;stroke-linecap:square;stroke-width:1.5;"/>
   </g>
   <g id="patch_3">
    <path d="M 57.6 307.584 
L 57.6 41.472 
" style="fill:none;stroke:#000000;stroke-linecap:square;stroke-linejoin:miter;stroke-width:0.8;"/>
   </g>
   <g id="patch_4">
    <path d="M 414.72 307.584 
L 414.72 41.472 
" style="fill:none;stroke:#000000;stroke-linecap:square;stroke-linejoin:miter;stroke-width:0.8;"/>
   </g>
   <g id="patch_5">
    <path d="M 57.6 307.584 
L 414.72 307.584 
" style="fill:none;stroke:#000000;stroke-linecap:square;stroke-linejoin:miter;stroke-width:0.8;"/>
   </g>
   <g id="patch_6">
    <path d="M 57.6 41.472 
L 414.72 41.472 
" style="fill:none;stroke:#000000;stroke-linecap:square;stroke-linejoin:miter;stroke-width:0.8;"/>
   </g>
   <g id="text_15">
    <!-- CPU usage vs Training Cycles -->
    <defs>
     <path d="M 2.984375 54.6875 
L 12.5 54.6875 
L 29.59375 8.796875 
L 46.6875 54.6875 
L 56.203125 54.6875 
L 35.6875 0 
L 23.484375 0 
z
" id="DejaVuSans-76"/>
     <path d="M -0.296875 72.90625 
L 61.375 72.90625 
L 61.375 64.59375 
L 35.5 64.59375 
L 35.5 0 
L 25.59375 0 
L 25.59375 64.59375 
L -0.296875 64.59375 
z
" id="DejaVuSans-54"/>
     <path d="M 41.109375 46.296875 
Q 39.59375 47.171875 37.8125 47.578125 
Q 36.03125 48 33.890625 48 
Q 26.265625 48 22.1875 43.046875 
Q 18.109375 38.09375 18.109375 28.8125 
L 18.109375 0 
L 9.078125 0 
L 9.078125 54.6875 
L 18.109375 54.6875 
L 18.109375 46.1875 
Q 20.953125 51.171875 25.484375 53.578125 
Q 30.03125 56 36.53125 56 
Q 37.453125 56 38.578125 55.875 
Q 39.703125 55.765625 41.0625 55.515625 
z
" id="DejaVuSans-72"/>
     <path d="M 9.421875 54.6875 
L 18.40625 54.6875 
L 18.40625 0 
L 9.421875 0 
z
M 9.421875 75.984375 
L 18.40625 75.984375 
L 18.40625 64.59375 
L 9.421875 64.59375 
z
" id="DejaVuSans-69"/>
     <path d="M 54.890625 33.015625 
L 54.890625 0 
L 45.90625 0 
L 45.90625 32.71875 
Q 45.90625 40.484375 42.875 44.328125 
Q 39.84375 48.1875 33.796875 48.1875 
Q 26.515625 48.1875 22.3125 43.546875 
Q 18.109375 38.921875 18.109375 30.90625 
L 18.109375 0 
L 9.078125 0 
L 9.078125 54.6875 
L 18.109375 54.6875 
L 18.109375 46.1875 
Q 21.34375 51.125 25.703125 53.5625 
Q 30.078125 56 35.796875 56 
Q 45.21875 56 50.046875 50.171875 
Q 54.890625 44.34375 54.890625 33.015625 
z
" id="DejaVuSans-6e"/>
    </defs>
    <g transform="translate(132.704375 35.472)scale(0.14 -0.14)">
     <use xlink:href="#DejaVuSans-43"/>
     <use x="69.824219" xlink:href="#DejaVuSans-50"/>
     <use x="130.126953" xlink:href="#DejaVuSans-55"/>
     <use x="203.320312" xlink:href="#DejaVuSans-20"/>
     <use x="235.107422" xlink:href="#DejaVuSans-75"/>
     <use x="298.486328" xlink:href="#DejaVuSans-73"/>
     <use x="350.585938" xlink:href="#DejaVuSans-61"/>
     <use x="411.865234" xlink:href="#DejaVuSans-67"/>
     <use x="475.341797" xlink:href="#DejaVuSans-65"/>
     <use x="536.865234" xlink:href="#DejaVuSans-20"/>
     <use x="568.652344" xlink:href="#DejaVuSans-76"/>
     <use x="627.832031" xlink:href="#DejaVuSans-73"/>
     <use x="679.931641" xlink:href="#DejaVuSans-20"/>
     <use x="711.71875" xlink:href="#DejaVuSans-54"/>
     <use x="772.583984" xlink:href="#DejaVuSans-72"/>
     <use x="813.697266" xlink:href="#DejaVuSans-61"/>
     <use x="874.976562" xlink:href="#DejaVuSans-69"/>
     <use x="902.759766" xlink:href="#DejaVuSans-6e"/>
     <use x="966.138672" xlink:href="#DejaVuSans-69"/>
     <use x="993.921875" xlink:href="#DejaVuSans-6e"/>
     <use x="1057.300781" xlink:href="#DejaVuSans-67"/>
     <use x="1120.777344" xlink:href="#DejaVuSans-20"/>
     <use x="1152.564453" xlink:href="#DejaVuSans-43"/>
     <use x="1222.388672" xlink:href="#DejaVuSans-79"/>
     <use x="1281.568359" xlink:href="#DejaVuSans-63"/>
     <use x="1336.548828" xlink:href="#DejaVuSans-6c"/>
     <use x="1364.332031" xlink:href="#DejaVuSans-65"/>
     <use x="1425.855469" xlink:href="#DejaVuSans-73"/>
    </g>
   </g>
  </g>
 </g>
 <defs>
  <clipPath id="pbecb224907">
   <rect height="266.112" width="357.12" x="57.6" y="41.472"/>
  </clipPath>
 </defs>
</svg>
