<?xml version="1.0" encoding="utf-8" standalone="no"?>
<!DOCTYPE svg PUBLIC "-//W3C//DTD SVG 1.1//EN"
  "http://www.w3.org/Graphics/SVG/1.1/DTD/svg11.dtd">
<!-- Created with matplotlib (http://matplotlib.org/) -->
<svg height="345pt" version="1.1" viewBox="0 0 460 345" width="460pt" xmlns="http://www.w3.org/2000/svg" xmlns:xlink="http://www.w3.org/1999/xlink">
 <defs>
  <style type="text/css">
*{stroke-linecap:butt;stroke-linejoin:round;}
  </style>
 </defs>
 <g id="figure_1">
  <g id="patch_1">
   <path d="M 0 345.6 
L 460.8 345.6 
L 460.8 0 
L 0 0 
z
" style="fill:#ffffff;"/>
  </g>
  <g id="axes_1">
   <g id="patch_2">
    <path d="M 57.6 307.584 
L 414.72 307.584 
L 414.72 41.472 
L 57.6 41.472 
z
" style="fill:#ffffff;"/>
   </g>
   <g id="matplotlib.axis_1">
    <g id="xtick_1">
     <g id="line2d_1">
      <defs>
       <path d="M 0 0 
L 0 3.5 
" id="mf80e26a73e" style="stroke:#000000;stroke-width:0.8;"/>
      </defs>
      <g>
       <use style="stroke:#000000;stroke-width:0.8;" x="73.832727" xlink:href="#mf80e26a73e" y="307.584"/>
      </g>
     </g>
     <g id="text_1">
      <!-- 0 -->
      <defs>
       <path d="M 31.78125 66.40625 
Q 24.171875 66.40625 20.328125 58.90625 
Q 16.5 51.421875 16.5 36.375 
Q 16.5 21.390625 20.328125 13.890625 
Q 24.171875 6.390625 31.78125 6.390625 
Q 39.453125 6.390625 43.28125 13.890625 
Q 47.125 21.390625 47.125 36.375 
Q 47.125 51.421875 43.28125 58.90625 
Q 39.453125 66.40625 31.78125 66.40625 
z
M 31.78125 74.21875 
Q 44.046875 74.21875 50.515625 64.515625 
Q 56.984375 54.828125 56.984375 36.375 
Q 56.984375 17.96875 50.515625 8.265625 
Q 44.046875 -1.421875 31.78125 -1.421875 
Q 19.53125 -1.421875 13.0625 8.265625 
Q 6.59375 17.96875 6.59375 36.375 
Q 6.59375 54.828125 13.0625 64.515625 
Q 19.53125 74.21875 31.78125 74.21875 
z
" id="DejaVuSans-30"/>
      </defs>
      <g transform="translate(70.651477 322.182437)scale(0.1 -0.1)">
       <use xlink:href="#DejaVuSans-30"/>
      </g>
     </g>
    </g>
    <g id="xtick_2">
     <g id="line2d_2">
      <g>
       <use style="stroke:#000000;stroke-width:0.8;" x="138.828632" xlink:href="#mf80e26a73e" y="307.584"/>
      </g>
     </g>
     <g id="text_2">
      <!-- 200 -->
      <defs>
       <path d="M 19.1875 8.296875 
L 53.609375 8.296875 
L 53.609375 0 
L 7.328125 0 
L 7.328125 8.296875 
Q 12.9375 14.109375 22.625 23.890625 
Q 32.328125 33.6875 34.8125 36.53125 
Q 39.546875 41.84375 41.421875 45.53125 
Q 43.3125 49.21875 43.3125 52.78125 
Q 43.3125 58.59375 39.234375 62.25 
Q 35.15625 65.921875 28.609375 65.921875 
Q 23.96875 65.921875 18.8125 64.3125 
Q 13.671875 62.703125 7.8125 59.421875 
L 7.8125 69.390625 
Q 13.765625 71.78125 18.9375 73 
Q 24.125 74.21875 28.421875 74.21875 
Q 39.75 74.21875 46.484375 68.546875 
Q 53.21875 62.890625 53.21875 53.421875 
Q 53.21875 48.921875 51.53125 44.890625 
Q 49.859375 40.875 45.40625 35.40625 
Q 44.1875 33.984375 37.640625 27.21875 
Q 31.109375 20.453125 19.1875 8.296875 
z
" id="DejaVuSans-32"/>
      </defs>
      <g transform="translate(129.284882 322.182437)scale(0.1 -0.1)">
       <use xlink:href="#DejaVuSans-32"/>
       <use x="63.623047" xlink:href="#DejaVuSans-30"/>
       <use x="127.246094" xlink:href="#DejaVuSans-30"/>
      </g>
     </g>
    </g>
    <g id="xtick_3">
     <g id="line2d_3">
      <g>
       <use style="stroke:#000000;stroke-width:0.8;" x="203.824537" xlink:href="#mf80e26a73e" y="307.584"/>
      </g>
     </g>
     <g id="text_3">
      <!-- 400 -->
      <defs>
       <path d="M 37.796875 64.3125 
L 12.890625 25.390625 
L 37.796875 25.390625 
z
M 35.203125 72.90625 
L 47.609375 72.90625 
L 47.609375 25.390625 
L 58.015625 25.390625 
L 58.015625 17.1875 
L 47.609375 17.1875 
L 47.609375 0 
L 37.796875 0 
L 37.796875 17.1875 
L 4.890625 17.1875 
L 4.890625 26.703125 
z
" id="DejaVuSans-34"/>
      </defs>
      <g transform="translate(194.280787 322.182437)scale(0.1 -0.1)">
       <use xlink:href="#DejaVuSans-34"/>
       <use x="63.623047" xlink:href="#DejaVuSans-30"/>
       <use x="127.246094" xlink:href="#DejaVuSans-30"/>
      </g>
     </g>
    </g>
    <g id="xtick_4">
     <g id="line2d_4">
      <g>
       <use style="stroke:#000000;stroke-width:0.8;" x="268.820442" xlink:href="#mf80e26a73e" y="307.584"/>
      </g>
     </g>
     <g id="text_4">
      <!-- 600 -->
      <defs>
       <path d="M 33.015625 40.375 
Q 26.375 40.375 22.484375 35.828125 
Q 18.609375 31.296875 18.609375 23.390625 
Q 18.609375 15.53125 22.484375 10.953125 
Q 26.375 6.390625 33.015625 6.390625 
Q 39.65625 6.390625 43.53125 10.953125 
Q 47.40625 15.53125 47.40625 23.390625 
Q 47.40625 31.296875 43.53125 35.828125 
Q 39.65625 40.375 33.015625 40.375 
z
M 52.59375 71.296875 
L 52.59375 62.3125 
Q 48.875 64.0625 45.09375 64.984375 
Q 41.3125 65.921875 37.59375 65.921875 
Q 27.828125 65.921875 22.671875 59.328125 
Q 17.53125 52.734375 16.796875 39.40625 
Q 19.671875 43.65625 24.015625 45.921875 
Q 28.375 48.1875 33.59375 48.1875 
Q 44.578125 48.1875 50.953125 41.515625 
Q 57.328125 34.859375 57.328125 23.390625 
Q 57.328125 12.15625 50.6875 5.359375 
Q 44.046875 -1.421875 33.015625 -1.421875 
Q 20.359375 -1.421875 13.671875 8.265625 
Q 6.984375 17.96875 6.984375 36.375 
Q 6.984375 53.65625 15.1875 63.9375 
Q 23.390625 74.21875 37.203125 74.21875 
Q 40.921875 74.21875 44.703125 73.484375 
Q 48.484375 72.75 52.59375 71.296875 
z
" id="DejaVuSans-36"/>
      </defs>
      <g transform="translate(259.276692 322.182437)scale(0.1 -0.1)">
       <use xlink:href="#DejaVuSans-36"/>
       <use x="63.623047" xlink:href="#DejaVuSans-30"/>
       <use x="127.246094" xlink:href="#DejaVuSans-30"/>
      </g>
     </g>
    </g>
    <g id="xtick_5">
     <g id="line2d_5">
      <g>
       <use style="stroke:#000000;stroke-width:0.8;" x="333.816347" xlink:href="#mf80e26a73e" y="307.584"/>
      </g>
     </g>
     <g id="text_5">
      <!-- 800 -->
      <defs>
       <path d="M 31.78125 34.625 
Q 24.75 34.625 20.71875 30.859375 
Q 16.703125 27.09375 16.703125 20.515625 
Q 16.703125 13.921875 20.71875 10.15625 
Q 24.75 6.390625 31.78125 6.390625 
Q 38.8125 6.390625 42.859375 10.171875 
Q 46.921875 13.96875 46.921875 20.515625 
Q 46.921875 27.09375 42.890625 30.859375 
Q 38.875 34.625 31.78125 34.625 
z
M 21.921875 38.8125 
Q 15.578125 40.375 12.03125 44.71875 
Q 8.5 49.078125 8.5 55.328125 
Q 8.5 64.0625 14.71875 69.140625 
Q 20.953125 74.21875 31.78125 74.21875 
Q 42.671875 74.21875 48.875 69.140625 
Q 55.078125 64.0625 55.078125 55.328125 
Q 55.078125 49.078125 51.53125 44.71875 
Q 48 40.375 41.703125 38.8125 
Q 48.828125 37.15625 52.796875 32.3125 
Q 56.78125 27.484375 56.78125 20.515625 
Q 56.78125 9.90625 50.3125 4.234375 
Q 43.84375 -1.421875 31.78125 -1.421875 
Q 19.734375 -1.421875 13.25 4.234375 
Q 6.78125 9.90625 6.78125 20.515625 
Q 6.78125 27.484375 10.78125 32.3125 
Q 14.796875 37.15625 21.921875 38.8125 
z
M 18.3125 54.390625 
Q 18.3125 48.734375 21.84375 45.5625 
Q 25.390625 42.390625 31.78125 42.390625 
Q 38.140625 42.390625 41.71875 45.5625 
Q 45.3125 48.734375 45.3125 54.390625 
Q 45.3125 60.0625 41.71875 63.234375 
Q 38.140625 66.40625 31.78125 66.40625 
Q 25.390625 66.40625 21.84375 63.234375 
Q 18.3125 60.0625 18.3125 54.390625 
z
" id="DejaVuSans-38"/>
      </defs>
      <g transform="translate(324.272597 322.182437)scale(0.1 -0.1)">
       <use xlink:href="#DejaVuSans-38"/>
       <use x="63.623047" xlink:href="#DejaVuSans-30"/>
       <use x="127.246094" xlink:href="#DejaVuSans-30"/>
      </g>
     </g>
    </g>
    <g id="xtick_6">
     <g id="line2d_6">
      <g>
       <use style="stroke:#000000;stroke-width:0.8;" x="398.812252" xlink:href="#mf80e26a73e" y="307.584"/>
      </g>
     </g>
     <g id="text_6">
      <!-- 1000 -->
      <defs>
       <path d="M 12.40625 8.296875 
L 28.515625 8.296875 
L 28.515625 63.921875 
L 10.984375 60.40625 
L 10.984375 69.390625 
L 28.421875 72.90625 
L 38.28125 72.90625 
L 38.28125 8.296875 
L 54.390625 8.296875 
L 54.390625 0 
L 12.40625 0 
z
" id="DejaVuSans-31"/>
      </defs>
      <g transform="translate(386.087252 322.182437)scale(0.1 -0.1)">
       <use xlink:href="#DejaVuSans-31"/>
       <use x="63.623047" xlink:href="#DejaVuSans-30"/>
       <use x="127.246094" xlink:href="#DejaVuSans-30"/>
       <use x="190.869141" xlink:href="#DejaVuSans-30"/>
      </g>
     </g>
    </g>
    <g id="text_7">
     <!-- Cycles -->
     <defs>
      <path d="M 64.40625 67.28125 
L 64.40625 56.890625 
Q 59.421875 61.53125 53.78125 63.8125 
Q 48.140625 66.109375 41.796875 66.109375 
Q 29.296875 66.109375 22.65625 58.46875 
Q 16.015625 50.828125 16.015625 36.375 
Q 16.015625 21.96875 22.65625 14.328125 
Q 29.296875 6.6875 41.796875 6.6875 
Q 48.140625 6.6875 53.78125 8.984375 
Q 59.421875 11.28125 64.40625 15.921875 
L 64.40625 5.609375 
Q 59.234375 2.09375 53.4375 0.328125 
Q 47.65625 -1.421875 41.21875 -1.421875 
Q 24.65625 -1.421875 15.125 8.703125 
Q 5.609375 18.84375 5.609375 36.375 
Q 5.609375 53.953125 15.125 64.078125 
Q 24.65625 74.21875 41.21875 74.21875 
Q 47.75 74.21875 53.53125 72.484375 
Q 59.328125 70.75 64.40625 67.28125 
z
" id="DejaVuSans-43"/>
      <path d="M 32.171875 -5.078125 
Q 28.375 -14.84375 24.75 -17.8125 
Q 21.140625 -20.796875 15.09375 -20.796875 
L 7.90625 -20.796875 
L 7.90625 -13.28125 
L 13.1875 -13.28125 
Q 16.890625 -13.28125 18.9375 -11.515625 
Q 21 -9.765625 23.484375 -3.21875 
L 25.09375 0.875 
L 2.984375 54.6875 
L 12.5 54.6875 
L 29.59375 11.921875 
L 46.6875 54.6875 
L 56.203125 54.6875 
z
" id="DejaVuSans-79"/>
      <path d="M 48.78125 52.59375 
L 48.78125 44.1875 
Q 44.96875 46.296875 41.140625 47.34375 
Q 37.3125 48.390625 33.40625 48.390625 
Q 24.65625 48.390625 19.8125 42.84375 
Q 14.984375 37.3125 14.984375 27.296875 
Q 14.984375 17.28125 19.8125 11.734375 
Q 24.65625 6.203125 33.40625 6.203125 
Q 37.3125 6.203125 41.140625 7.25 
Q 44.96875 8.296875 48.78125 10.40625 
L 48.78125 2.09375 
Q 45.015625 0.34375 40.984375 -0.53125 
Q 36.96875 -1.421875 32.421875 -1.421875 
Q 20.0625 -1.421875 12.78125 6.34375 
Q 5.515625 14.109375 5.515625 27.296875 
Q 5.515625 40.671875 12.859375 48.328125 
Q 20.21875 56 33.015625 56 
Q 37.15625 56 41.109375 55.140625 
Q 45.0625 54.296875 48.78125 52.59375 
z
" id="DejaVuSans-63"/>
      <path d="M 9.421875 75.984375 
L 18.40625 75.984375 
L 18.40625 0 
L 9.421875 0 
z
" id="DejaVuSans-6c"/>
      <path d="M 56.203125 29.59375 
L 56.203125 25.203125 
L 14.890625 25.203125 
Q 15.484375 15.921875 20.484375 11.0625 
Q 25.484375 6.203125 34.421875 6.203125 
Q 39.59375 6.203125 44.453125 7.46875 
Q 49.3125 8.734375 54.109375 11.28125 
L 54.109375 2.78125 
Q 49.265625 0.734375 44.1875 -0.34375 
Q 39.109375 -1.421875 33.890625 -1.421875 
Q 20.796875 -1.421875 13.15625 6.1875 
Q 5.515625 13.8125 5.515625 26.8125 
Q 5.515625 40.234375 12.765625 48.109375 
Q 20.015625 56 32.328125 56 
Q 43.359375 56 49.78125 48.890625 
Q 56.203125 41.796875 56.203125 29.59375 
z
M 47.21875 32.234375 
Q 47.125 39.59375 43.09375 43.984375 
Q 39.0625 48.390625 32.421875 48.390625 
Q 24.90625 48.390625 20.390625 44.140625 
Q 15.875 39.890625 15.1875 32.171875 
z
" id="DejaVuSans-65"/>
      <path d="M 44.28125 53.078125 
L 44.28125 44.578125 
Q 40.484375 46.53125 36.375 47.5 
Q 32.28125 48.484375 27.875 48.484375 
Q 21.1875 48.484375 17.84375 46.4375 
Q 14.5 44.390625 14.5 40.28125 
Q 14.5 37.15625 16.890625 35.375 
Q 19.28125 33.59375 26.515625 31.984375 
L 29.59375 31.296875 
Q 39.15625 29.25 43.1875 25.515625 
Q 47.21875 21.78125 47.21875 15.09375 
Q 47.21875 7.46875 41.1875 3.015625 
Q 35.15625 -1.421875 24.609375 -1.421875 
Q 20.21875 -1.421875 15.453125 -0.5625 
Q 10.6875 0.296875 5.421875 2 
L 5.421875 11.28125 
Q 10.40625 8.6875 15.234375 7.390625 
Q 20.0625 6.109375 24.8125 6.109375 
Q 31.15625 6.109375 34.5625 8.28125 
Q 37.984375 10.453125 37.984375 14.40625 
Q 37.984375 18.0625 35.515625 20.015625 
Q 33.0625 21.96875 24.703125 23.78125 
L 21.578125 24.515625 
Q 13.234375 26.265625 9.515625 29.90625 
Q 5.8125 33.546875 5.8125 39.890625 
Q 5.8125 47.609375 11.28125 51.796875 
Q 16.75 56 26.8125 56 
Q 31.78125 56 36.171875 55.265625 
Q 40.578125 54.546875 44.28125 53.078125 
z
" id="DejaVuSans-73"/>
     </defs>
     <g transform="translate(219.889688 335.860562)scale(0.1 -0.1)">
      <use xlink:href="#DejaVuSans-43"/>
      <use x="69.824219" xlink:href="#DejaVuSans-79"/>
      <use x="129.003906" xlink:href="#DejaVuSans-63"/>
      <use x="183.984375" xlink:href="#DejaVuSans-6c"/>
      <use x="211.767578" xlink:href="#DejaVuSans-65"/>
      <use x="273.291016" xlink:href="#DejaVuSans-73"/>
     </g>
    </g>
   </g>
   <g id="matplotlib.axis_2">
    <g id="ytick_1">
     <g id="line2d_7">
      <defs>
       <path d="M 0 0 
L -3.5 0 
" id="m68916ae30f" style="stroke:#000000;stroke-width:0.8;"/>
      </defs>
      <g>
       <use style="stroke:#000000;stroke-width:0.8;" x="57.6" xlink:href="#m68916ae30f" y="300.197442"/>
      </g>
     </g>
     <g id="text_8">
      <!-- 8.150 -->
      <defs>
       <path d="M 10.6875 12.40625 
L 21 12.40625 
L 21 0 
L 10.6875 0 
z
" id="DejaVuSans-2e"/>
       <path d="M 10.796875 72.90625 
L 49.515625 72.90625 
L 49.515625 64.59375 
L 19.828125 64.59375 
L 19.828125 46.734375 
Q 21.96875 47.46875 24.109375 47.828125 
Q 26.265625 48.1875 28.421875 48.1875 
Q 40.625 48.1875 47.75 41.5 
Q 54.890625 34.8125 54.890625 23.390625 
Q 54.890625 11.625 47.5625 5.09375 
Q 40.234375 -1.421875 26.90625 -1.421875 
Q 22.3125 -1.421875 17.546875 -0.640625 
Q 12.796875 0.140625 7.71875 1.703125 
L 7.71875 11.625 
Q 12.109375 9.234375 16.796875 8.0625 
Q 21.484375 6.890625 26.703125 6.890625 
Q 35.15625 6.890625 40.078125 11.328125 
Q 45.015625 15.765625 45.015625 23.390625 
Q 45.015625 31 40.078125 35.4375 
Q 35.15625 39.890625 26.703125 39.890625 
Q 22.75 39.890625 18.8125 39.015625 
Q 14.890625 38.140625 10.796875 36.28125 
z
" id="DejaVuSans-35"/>
      </defs>
      <g transform="translate(21.971875 303.996661)scale(0.1 -0.1)">
       <use xlink:href="#DejaVuSans-38"/>
       <use x="63.623047" xlink:href="#DejaVuSans-2e"/>
       <use x="95.410156" xlink:href="#DejaVuSans-31"/>
       <use x="159.033203" xlink:href="#DejaVuSans-35"/>
       <use x="222.65625" xlink:href="#DejaVuSans-30"/>
      </g>
     </g>
    </g>
    <g id="ytick_2">
     <g id="line2d_8">
      <g>
       <use style="stroke:#000000;stroke-width:0.8;" x="57.6" xlink:href="#m68916ae30f" y="266.05569"/>
      </g>
     </g>
     <g id="text_9">
      <!-- 8.175 -->
      <defs>
       <path d="M 8.203125 72.90625 
L 55.078125 72.90625 
L 55.078125 68.703125 
L 28.609375 0 
L 18.3125 0 
L 43.21875 64.59375 
L 8.203125 64.59375 
z
" id="DejaVuSans-37"/>
      </defs>
      <g transform="translate(21.971875 269.854909)scale(0.1 -0.1)">
       <use xlink:href="#DejaVuSans-38"/>
       <use x="63.623047" xlink:href="#DejaVuSans-2e"/>
       <use x="95.410156" xlink:href="#DejaVuSans-31"/>
       <use x="159.033203" xlink:href="#DejaVuSans-37"/>
       <use x="222.65625" xlink:href="#DejaVuSans-35"/>
      </g>
     </g>
    </g>
    <g id="ytick_3">
     <g id="line2d_9">
      <g>
       <use style="stroke:#000000;stroke-width:0.8;" x="57.6" xlink:href="#m68916ae30f" y="231.913938"/>
      </g>
     </g>
     <g id="text_10">
      <!-- 8.200 -->
      <g transform="translate(21.971875 235.713157)scale(0.1 -0.1)">
       <use xlink:href="#DejaVuSans-38"/>
       <use x="63.623047" xlink:href="#DejaVuSans-2e"/>
       <use x="95.410156" xlink:href="#DejaVuSans-32"/>
       <use x="159.033203" xlink:href="#DejaVuSans-30"/>
       <use x="222.65625" xlink:href="#DejaVuSans-30"/>
      </g>
     </g>
    </g>
    <g id="ytick_4">
     <g id="line2d_10">
      <g>
       <use style="stroke:#000000;stroke-width:0.8;" x="57.6" xlink:href="#m68916ae30f" y="197.772186"/>
      </g>
     </g>
     <g id="text_11">
      <!-- 8.225 -->
      <g transform="translate(21.971875 201.571404)scale(0.1 -0.1)">
       <use xlink:href="#DejaVuSans-38"/>
       <use x="63.623047" xlink:href="#DejaVuSans-2e"/>
       <use x="95.410156" xlink:href="#DejaVuSans-32"/>
       <use x="159.033203" xlink:href="#DejaVuSans-32"/>
       <use x="222.65625" xlink:href="#DejaVuSans-35"/>
      </g>
     </g>
    </g>
    <g id="ytick_5">
     <g id="line2d_11">
      <g>
       <use style="stroke:#000000;stroke-width:0.8;" x="57.6" xlink:href="#m68916ae30f" y="163.630433"/>
      </g>
     </g>
     <g id="text_12">
      <!-- 8.250 -->
      <g transform="translate(21.971875 167.429652)scale(0.1 -0.1)">
       <use xlink:href="#DejaVuSans-38"/>
       <use x="63.623047" xlink:href="#DejaVuSans-2e"/>
       <use x="95.410156" xlink:href="#DejaVuSans-32"/>
       <use x="159.033203" xlink:href="#DejaVuSans-35"/>
       <use x="222.65625" xlink:href="#DejaVuSans-30"/>
      </g>
     </g>
    </g>
    <g id="ytick_6">
     <g id="line2d_12">
      <g>
       <use style="stroke:#000000;stroke-width:0.8;" x="57.6" xlink:href="#m68916ae30f" y="129.488681"/>
      </g>
     </g>
     <g id="text_13">
      <!-- 8.275 -->
      <g transform="translate(21.971875 133.2879)scale(0.1 -0.1)">
       <use xlink:href="#DejaVuSans-38"/>
       <use x="63.623047" xlink:href="#DejaVuSans-2e"/>
       <use x="95.410156" xlink:href="#DejaVuSans-32"/>
       <use x="159.033203" xlink:href="#DejaVuSans-37"/>
       <use x="222.65625" xlink:href="#DejaVuSans-35"/>
      </g>
     </g>
    </g>
    <g id="ytick_7">
     <g id="line2d_13">
      <g>
       <use style="stroke:#000000;stroke-width:0.8;" x="57.6" xlink:href="#m68916ae30f" y="95.346929"/>
      </g>
     </g>
     <g id="text_14">
      <!-- 8.300 -->
      <defs>
       <path d="M 40.578125 39.3125 
Q 47.65625 37.796875 51.625 33 
Q 55.609375 28.21875 55.609375 21.1875 
Q 55.609375 10.40625 48.1875 4.484375 
Q 40.765625 -1.421875 27.09375 -1.421875 
Q 22.515625 -1.421875 17.65625 -0.515625 
Q 12.796875 0.390625 7.625 2.203125 
L 7.625 11.71875 
Q 11.71875 9.328125 16.59375 8.109375 
Q 21.484375 6.890625 26.8125 6.890625 
Q 36.078125 6.890625 40.9375 10.546875 
Q 45.796875 14.203125 45.796875 21.1875 
Q 45.796875 27.640625 41.28125 31.265625 
Q 36.765625 34.90625 28.71875 34.90625 
L 20.21875 34.90625 
L 20.21875 43.015625 
L 29.109375 43.015625 
Q 36.375 43.015625 40.234375 45.921875 
Q 44.09375 48.828125 44.09375 54.296875 
Q 44.09375 59.90625 40.109375 62.90625 
Q 36.140625 65.921875 28.71875 65.921875 
Q 24.65625 65.921875 20.015625 65.03125 
Q 15.375 64.15625 9.8125 62.3125 
L 9.8125 71.09375 
Q 15.4375 72.65625 20.34375 73.4375 
Q 25.25 74.21875 29.59375 74.21875 
Q 40.828125 74.21875 47.359375 69.109375 
Q 53.90625 64.015625 53.90625 55.328125 
Q 53.90625 49.265625 50.4375 45.09375 
Q 46.96875 40.921875 40.578125 39.3125 
z
" id="DejaVuSans-33"/>
      </defs>
      <g transform="translate(21.971875 99.146148)scale(0.1 -0.1)">
       <use xlink:href="#DejaVuSans-38"/>
       <use x="63.623047" xlink:href="#DejaVuSans-2e"/>
       <use x="95.410156" xlink:href="#DejaVuSans-33"/>
       <use x="159.033203" xlink:href="#DejaVuSans-30"/>
       <use x="222.65625" xlink:href="#DejaVuSans-30"/>
      </g>
     </g>
    </g>
    <g id="ytick_8">
     <g id="line2d_14">
      <g>
       <use style="stroke:#000000;stroke-width:0.8;" x="57.6" xlink:href="#m68916ae30f" y="61.205177"/>
      </g>
     </g>
     <g id="text_15">
      <!-- 8.325 -->
      <g transform="translate(21.971875 65.004395)scale(0.1 -0.1)">
       <use xlink:href="#DejaVuSans-38"/>
       <use x="63.623047" xlink:href="#DejaVuSans-2e"/>
       <use x="95.410156" xlink:href="#DejaVuSans-33"/>
       <use x="159.033203" xlink:href="#DejaVuSans-32"/>
       <use x="222.65625" xlink:href="#DejaVuSans-35"/>
      </g>
     </g>
    </g>
    <g id="text_16">
     <!-- Memory usage -->
     <defs>
      <path d="M 9.8125 72.90625 
L 24.515625 72.90625 
L 43.109375 23.296875 
L 61.8125 72.90625 
L 76.515625 72.90625 
L 76.515625 0 
L 66.890625 0 
L 66.890625 64.015625 
L 48.09375 14.015625 
L 38.1875 14.015625 
L 19.390625 64.015625 
L 19.390625 0 
L 9.8125 0 
z
" id="DejaVuSans-4d"/>
      <path d="M 52 44.1875 
Q 55.375 50.25 60.0625 53.125 
Q 64.75 56 71.09375 56 
Q 79.640625 56 84.28125 50.015625 
Q 88.921875 44.046875 88.921875 33.015625 
L 88.921875 0 
L 79.890625 0 
L 79.890625 32.71875 
Q 79.890625 40.578125 77.09375 44.375 
Q 74.3125 48.1875 68.609375 48.1875 
Q 61.625 48.1875 57.5625 43.546875 
Q 53.515625 38.921875 53.515625 30.90625 
L 53.515625 0 
L 44.484375 0 
L 44.484375 32.71875 
Q 44.484375 40.625 41.703125 44.40625 
Q 38.921875 48.1875 33.109375 48.1875 
Q 26.21875 48.1875 22.15625 43.53125 
Q 18.109375 38.875 18.109375 30.90625 
L 18.109375 0 
L 9.078125 0 
L 9.078125 54.6875 
L 18.109375 54.6875 
L 18.109375 46.1875 
Q 21.1875 51.21875 25.484375 53.609375 
Q 29.78125 56 35.6875 56 
Q 41.65625 56 45.828125 52.96875 
Q 50 49.953125 52 44.1875 
z
" id="DejaVuSans-6d"/>
      <path d="M 30.609375 48.390625 
Q 23.390625 48.390625 19.1875 42.75 
Q 14.984375 37.109375 14.984375 27.296875 
Q 14.984375 17.484375 19.15625 11.84375 
Q 23.34375 6.203125 30.609375 6.203125 
Q 37.796875 6.203125 41.984375 11.859375 
Q 46.1875 17.53125 46.1875 27.296875 
Q 46.1875 37.015625 41.984375 42.703125 
Q 37.796875 48.390625 30.609375 48.390625 
z
M 30.609375 56 
Q 42.328125 56 49.015625 48.375 
Q 55.71875 40.765625 55.71875 27.296875 
Q 55.71875 13.875 49.015625 6.21875 
Q 42.328125 -1.421875 30.609375 -1.421875 
Q 18.84375 -1.421875 12.171875 6.21875 
Q 5.515625 13.875 5.515625 27.296875 
Q 5.515625 40.765625 12.171875 48.375 
Q 18.84375 56 30.609375 56 
z
" id="DejaVuSans-6f"/>
      <path d="M 41.109375 46.296875 
Q 39.59375 47.171875 37.8125 47.578125 
Q 36.03125 48 33.890625 48 
Q 26.265625 48 22.1875 43.046875 
Q 18.109375 38.09375 18.109375 28.8125 
L 18.109375 0 
L 9.078125 0 
L 9.078125 54.6875 
L 18.109375 54.6875 
L 18.109375 46.1875 
Q 20.953125 51.171875 25.484375 53.578125 
Q 30.03125 56 36.53125 56 
Q 37.453125 56 38.578125 55.875 
Q 39.703125 55.765625 41.0625 55.515625 
z
" id="DejaVuSans-72"/>
      <path id="DejaVuSans-20"/>
      <path d="M 8.5 21.578125 
L 8.5 54.6875 
L 17.484375 54.6875 
L 17.484375 21.921875 
Q 17.484375 14.15625 20.5 10.265625 
Q 23.53125 6.390625 29.59375 6.390625 
Q 36.859375 6.390625 41.078125 11.03125 
Q 45.3125 15.671875 45.3125 23.6875 
L 45.3125 54.6875 
L 54.296875 54.6875 
L 54.296875 0 
L 45.3125 0 
L 45.3125 8.40625 
Q 42.046875 3.421875 37.71875 1 
Q 33.40625 -1.421875 27.6875 -1.421875 
Q 18.265625 -1.421875 13.375 4.4375 
Q 8.5 10.296875 8.5 21.578125 
z
M 31.109375 56 
z
" id="DejaVuSans-75"/>
      <path d="M 34.28125 27.484375 
Q 23.390625 27.484375 19.1875 25 
Q 14.984375 22.515625 14.984375 16.5 
Q 14.984375 11.71875 18.140625 8.90625 
Q 21.296875 6.109375 26.703125 6.109375 
Q 34.1875 6.109375 38.703125 11.40625 
Q 43.21875 16.703125 43.21875 25.484375 
L 43.21875 27.484375 
z
M 52.203125 31.203125 
L 52.203125 0 
L 43.21875 0 
L 43.21875 8.296875 
Q 40.140625 3.328125 35.546875 0.953125 
Q 30.953125 -1.421875 24.3125 -1.421875 
Q 15.921875 -1.421875 10.953125 3.296875 
Q 6 8.015625 6 15.921875 
Q 6 25.140625 12.171875 29.828125 
Q 18.359375 34.515625 30.609375 34.515625 
L 43.21875 34.515625 
L 43.21875 35.40625 
Q 43.21875 41.609375 39.140625 45 
Q 35.0625 48.390625 27.6875 48.390625 
Q 23 48.390625 18.546875 47.265625 
Q 14.109375 46.140625 10.015625 43.890625 
L 10.015625 52.203125 
Q 14.9375 54.109375 19.578125 55.046875 
Q 24.21875 56 28.609375 56 
Q 40.484375 56 46.34375 49.84375 
Q 52.203125 43.703125 52.203125 31.203125 
z
" id="DejaVuSans-61"/>
      <path d="M 45.40625 27.984375 
Q 45.40625 37.75 41.375 43.109375 
Q 37.359375 48.484375 30.078125 48.484375 
Q 22.859375 48.484375 18.828125 43.109375 
Q 14.796875 37.75 14.796875 27.984375 
Q 14.796875 18.265625 18.828125 12.890625 
Q 22.859375 7.515625 30.078125 7.515625 
Q 37.359375 7.515625 41.375 12.890625 
Q 45.40625 18.265625 45.40625 27.984375 
z
M 54.390625 6.78125 
Q 54.390625 -7.171875 48.1875 -13.984375 
Q 42 -20.796875 29.203125 -20.796875 
Q 24.46875 -20.796875 20.265625 -20.09375 
Q 16.0625 -19.390625 12.109375 -17.921875 
L 12.109375 -9.1875 
Q 16.0625 -11.328125 19.921875 -12.34375 
Q 23.78125 -13.375 27.78125 -13.375 
Q 36.625 -13.375 41.015625 -8.765625 
Q 45.40625 -4.15625 45.40625 5.171875 
L 45.40625 9.625 
Q 42.625 4.78125 38.28125 2.390625 
Q 33.9375 0 27.875 0 
Q 17.828125 0 11.671875 7.65625 
Q 5.515625 15.328125 5.515625 27.984375 
Q 5.515625 40.671875 11.671875 48.328125 
Q 17.828125 56 27.875 56 
Q 33.9375 56 38.28125 53.609375 
Q 42.625 51.21875 45.40625 46.390625 
L 45.40625 54.6875 
L 54.390625 54.6875 
z
" id="DejaVuSans-67"/>
     </defs>
     <g transform="translate(15.892187 211.5405)rotate(-90)scale(0.1 -0.1)">
      <use xlink:href="#DejaVuSans-4d"/>
      <use x="86.279297" xlink:href="#DejaVuSans-65"/>
      <use x="147.802734" xlink:href="#DejaVuSans-6d"/>
      <use x="245.214844" xlink:href="#DejaVuSans-6f"/>
      <use x="306.396484" xlink:href="#DejaVuSans-72"/>
      <use x="347.509766" xlink:href="#DejaVuSans-79"/>
      <use x="406.689453" xlink:href="#DejaVuSans-20"/>
      <use x="438.476562" xlink:href="#DejaVuSans-75"/>
      <use x="501.855469" xlink:href="#DejaVuSans-73"/>
      <use x="553.955078" xlink:href="#DejaVuSans-61"/>
      <use x="615.234375" xlink:href="#DejaVuSans-67"/>
      <use x="678.710938" xlink:href="#DejaVuSans-65"/>
     </g>
    </g>
    <g id="text_17">
     <!-- 1e9 -->
     <defs>
      <path d="M 10.984375 1.515625 
L 10.984375 10.5 
Q 14.703125 8.734375 18.5 7.8125 
Q 22.3125 6.890625 25.984375 6.890625 
Q 35.75 6.890625 40.890625 13.453125 
Q 46.046875 20.015625 46.78125 33.40625 
Q 43.953125 29.203125 39.59375 26.953125 
Q 35.25 24.703125 29.984375 24.703125 
Q 19.046875 24.703125 12.671875 31.3125 
Q 6.296875 37.9375 6.296875 49.421875 
Q 6.296875 60.640625 12.9375 67.421875 
Q 19.578125 74.21875 30.609375 74.21875 
Q 43.265625 74.21875 49.921875 64.515625 
Q 56.59375 54.828125 56.59375 36.375 
Q 56.59375 19.140625 48.40625 8.859375 
Q 40.234375 -1.421875 26.421875 -1.421875 
Q 22.703125 -1.421875 18.890625 -0.6875 
Q 15.09375 0.046875 10.984375 1.515625 
z
M 30.609375 32.421875 
Q 37.25 32.421875 41.125 36.953125 
Q 45.015625 41.5 45.015625 49.421875 
Q 45.015625 57.28125 41.125 61.84375 
Q 37.25 66.40625 30.609375 66.40625 
Q 23.96875 66.40625 20.09375 61.84375 
Q 16.21875 57.28125 16.21875 49.421875 
Q 16.21875 41.5 20.09375 36.953125 
Q 23.96875 32.421875 30.609375 32.421875 
z
" id="DejaVuSans-39"/>
     </defs>
     <g transform="translate(57.6 38.472)scale(0.1 -0.1)">
      <use xlink:href="#DejaVuSans-31"/>
      <use x="63.623047" xlink:href="#DejaVuSans-65"/>
      <use x="125.146484" xlink:href="#DejaVuSans-39"/>
     </g>
    </g>
   </g>
   <g id="line2d_15">
    <path clip-path="url(#pf477b02ecb)" d="M 73.832727 125.006224 
L 74.157707 118.433527 
L 74.482686 117.695148 
L 74.807666 118.590153 
L 75.132645 120.553572 
L 75.457625 114.243782 
L 75.782604 113.415902 
L 76.107584 118.041962 
L 76.432563 117.63921 
L 76.757543 113.550153 
L 77.082523 114.758411 
L 77.407502 114.657723 
L 77.732482 115.787667 
L 78.057461 117.353927 
L 78.382441 114.965381 
L 78.70742 120.721385 
L 79.0324 112.381052 
L 79.357379 113.689998 
L 79.682359 113.745936 
L 80.007338 118.013993 
L 80.332318 114.031219 
L 80.657297 111.872018 
L 80.982277 112.694304 
L 81.307256 111.983893 
L 81.632236 111.732173 
L 82.282195 111.899987 
L 82.607174 111.922362 
L 82.932154 111.553172 
L 83.257133 104.454659 
L 83.582113 107.956368 
L 83.907093 116.078544 
L 84.232072 105.841918 
L 84.557052 105.131507 
L 84.882031 116.749798 
L 85.207011 102.714992 
L 85.53199 105.640542 
L 85.85697 105.097945 
L 86.181949 118.825092 
L 86.506929 118.21537 
L 86.831908 115.373727 
L 87.156888 118.187401 
L 87.806847 112.520897 
L 88.131826 117.661585 
L 88.456806 116.106513 
L 88.781785 117.007112 
L 89.106765 113.779498 
L 89.431744 113.186557 
L 89.756724 118.0084 
L 90.081704 118.562184 
L 90.406683 113.505403 
L 91.056642 118.338433 
L 91.381622 119.29497 
L 91.706601 117.689554 
L 92.031581 117.001518 
L 92.35656 116.94558 
L 92.68154 115.675791 
L 93.006519 117.465802 
L 93.331499 117.779054 
L 93.656478 114.456346 
L 93.981458 118.774748 
L 94.306437 113.287245 
L 94.631417 116.27992 
L 94.956396 116.861674 
L 95.606355 116.414171 
L 95.931335 117.734304 
L 96.256314 117.22527 
L 96.581294 115.060475 
L 96.906274 118.371996 
L 97.231253 117.644804 
L 97.556233 118.651685 
L 97.881212 115.843605 
L 98.206192 118.0979 
L 98.531171 116.833705 
L 98.856151 117.292395 
L 99.18113 121.213638 
L 99.50611 121.711485 
L 99.831089 122.427489 
L 100.156069 119.373283 
L 100.806028 121.963205 
L 101.131007 120.872417 
L 101.455987 122.76871 
L 101.780966 119.893505 
L 102.105946 120.28507 
L 102.430925 122.584115 
L 103.080885 120.117256 
L 103.405864 121.001074 
L 103.730844 121.168888 
L 104.055823 121.124138 
L 104.380803 121.661141 
L 104.705782 121.001074 
L 105.030762 118.702029 
L 105.355741 122.684804 
L 105.680721 122.612084 
L 106.0057 119.25022 
L 106.33068 118.360808 
L 106.655659 120.061319 
L 106.980639 119.977412 
L 107.305618 116.979143 
L 107.630598 122.746335 
L 107.955577 122.26527 
L 108.605536 120.671041 
L 108.930516 122.791085 
L 109.255495 121.129731 
L 109.580475 121.560453 
L 110.230434 124.016124 
L 110.555414 120.945137 
L 110.880393 123.982562 
L 111.205373 123.971374 
L 111.530352 121.879299 
L 111.855332 123.316901 
L 112.180311 123.210619 
L 112.505291 122.158988 
L 112.83027 120.53679 
L 113.15525 122.751929 
L 113.480229 121.717079 
L 113.805209 125.011818 
L 114.130188 123.719654 
L 114.455168 119.809598 
L 115.430106 123.590997 
L 115.755086 122.701585 
L 116.080066 123.686091 
L 116.405045 122.908555 
L 116.730025 123.641341 
L 117.055004 120.32982 
L 117.379984 123.579809 
L 117.704963 122.226113 
L 118.029943 121.655547 
L 118.354922 121.370264 
L 118.679902 121.912861 
L 119.004881 125.436946 
L 119.329861 121.498921 
L 119.65484 127.282895 
L 119.97982 149.059498 
L 120.954758 172.911396 
L 121.279738 172.5478 
L 121.604717 177.682895 
L 121.929697 176.776701 
L 122.254676 276.189443 
L 122.579656 275.081873 
L 122.904636 271.938166 
L 123.229615 281.279787 
L 123.554595 280.854659 
L 123.879574 279.517745 
L 124.204554 280.910597 
L 124.529533 276.239787 
L 124.854513 280.463094 
L 125.179492 279.74709 
L 125.504472 276.698477 
L 125.829451 276.636946 
L 126.154431 279.719121 
L 126.47941 279.679964 
L 126.80439 278.197612 
L 127.129369 278.818522 
L 127.454349 274.186868 
L 127.779328 284.736746 
L 128.104308 282.488044 
L 128.429287 283.964804 
L 128.754267 282.213949 
L 129.079247 283.79699 
L 129.404226 280.865847 
L 129.729206 282.64467 
L 130.054185 282.4377 
L 130.379165 281.4476 
L 131.029124 283.970397 
L 131.354103 282.4377 
L 131.679083 283.271174 
L 132.004062 282.353794 
L 132.329042 280.32325 
L 132.654021 282.901984 
L 132.979001 282.241918 
L 133.30398 283.517301 
L 133.62896 282.39295 
L 133.953939 284.222118 
L 134.278919 284.367556 
L 134.603898 282.493638 
L 135.253857 284.25568 
L 135.578837 283.813771 
L 135.903817 284.054304 
L 136.228796 283.008266 
L 136.553776 282.381762 
L 136.878755 283.830553 
L 137.203735 284.059898 
L 137.528714 282.471263 
L 137.853694 282.02376 
L 138.178673 282.30345 
L 138.503653 283.511707 
L 138.828632 283.26558 
L 139.153612 284.132617 
L 139.478591 283.584426 
L 139.803571 283.936835 
L 140.45353 282.381762 
L 140.778509 279.948466 
L 141.103489 282.745358 
L 141.428468 282.471263 
L 141.753448 283.405425 
L 142.078428 283.483738 
L 142.403407 282.527201 
L 143.053366 283.304737 
L 143.378346 283.047423 
L 143.703325 283.931241 
L 144.028305 284.21093 
L 144.353284 280.351219 
L 144.678264 282.415325 
L 145.003243 282.64467 
L 145.328223 284.138211 
L 145.653202 283.567645 
L 145.978182 286.101629 
L 146.303161 283.757834 
L 146.95312 284.887778 
L 147.2781 282.51042 
L 147.603079 281.56507 
L 147.928059 281.078411 
L 148.253038 285.066779 
L 148.578018 284.680808 
L 148.902998 284.613683 
L 149.227977 283.103361 
L 149.552957 282.678233 
L 149.877936 284.904559 
L 150.202916 282.706202 
L 150.527895 283.450175 
L 150.852875 283.662739 
L 151.177854 283.539676 
L 151.502834 282.846047 
L 151.827813 281.872728 
L 152.152793 284.389931 
L 152.477772 284.803871 
L 152.802752 283.970397 
L 153.127731 280.356812 
L 153.452711 284.46265 
L 153.77769 283.785802 
L 154.10267 284.182961 
L 154.752629 283.567645 
L 155.077609 284.915747 
L 155.402588 285.564626 
L 155.727568 285.905847 
L 156.052547 285.508688 
L 156.377527 280.507845 
L 156.702506 285.357656 
L 157.027486 285.173061 
L 157.352465 284.652839 
L 157.677445 284.557745 
L 158.002424 284.636058 
L 158.327404 283.645958 
L 158.652383 285.726846 
L 158.977363 286.996635 
L 159.302342 285.385625 
L 159.627322 285.799565 
L 159.952301 286.728133 
L 160.277281 281.335725 
L 160.60226 287.080542 
L 160.92724 286.901541 
L 161.252219 286.358943 
L 161.577199 284.138211 
L 161.902179 285.855503 
L 162.227158 285.805159 
L 162.552138 286.895947 
L 162.877117 281.414038 
L 163.202097 281.341319 
L 163.527076 285.430375 
L 164.826994 285.150686 
L 165.151974 285.335281 
L 165.476953 284.636058 
L 165.801933 284.613683 
L 166.126912 285.111529 
L 166.451892 284.870997 
L 166.776871 284.999654 
L 167.101851 286.627445 
L 167.42683 284.53537 
L 167.75181 281.4476 
L 168.07679 284.46265 
L 168.401769 282.885203 
L 169.051728 286.3981 
L 169.376708 286.81204 
L 169.701687 283.942428 
L 170.026667 285.559032 
L 170.351646 285.234593 
L 171.001605 286.437256 
L 171.326585 284.026335 
L 171.651564 285.396812 
L 171.976544 283.808178 
L 172.301523 284.926935 
L 172.626503 286.923916 
L 172.951482 285.312906 
L 173.276462 287.449731 
L 173.601441 286.532351 
L 173.926421 285.178655 
L 174.2514 284.512994 
L 174.57638 287.046979 
L 174.90136 286.789665 
L 175.226339 284.031929 
L 175.876298 287.578388 
L 176.201278 288.093017 
L 176.526257 287.914016 
L 176.851237 290.224249 
L 177.176216 289.541807 
L 177.501196 289.877434 
L 177.826175 286.834415 
L 178.151155 289.094304 
L 178.476134 287.522451 
L 178.801114 286.582695 
L 179.126093 286.409287 
L 179.451073 288.490175 
L 179.776052 295.488 
L 180.426011 290.621407 
L 180.750991 290.347312 
L 181.075971 292.735858 
L 181.40095 292.573638 
L 181.72593 290.459188 
L 182.050909 290.850752 
L 182.375889 290.006091 
L 182.700868 291.046535 
L 183.025848 290.627001 
L 183.350827 290.593438 
L 184.000786 283.036235 
L 184.325766 283.204049 
L 184.975725 287.589576 
L 185.300704 285.430375 
L 185.625684 285.603782 
L 185.950663 283.931241 
L 186.275643 284.205336 
L 186.600622 283.3383 
L 186.925602 287.293105 
L 187.250581 284.837434 
L 187.575561 284.826246 
L 187.900541 286.051285 
L 188.22552 290.101185 
L 188.5505 292.031041 
L 188.875479 290.671751 
L 189.200459 292.249199 
L 189.525438 291.32063 
L 189.850418 291.566757 
L 190.175397 294.100741 
L 190.500377 292.361074 
L 190.825356 291.812883 
L 191.150336 293.653239 
L 191.475315 288.937678 
L 191.800295 288.546113 
L 192.125274 290.548688 
L 192.450254 290.442406 
L 192.775233 293.037922 
L 193.100213 291.012972 
L 193.425192 291.717789 
L 193.750172 291.091285 
L 194.075152 292.780608 
L 194.400131 293.541363 
L 194.725111 292.154104 
L 195.05009 291.975103 
L 195.37507 292.036635 
L 195.700049 293.295236 
L 196.025029 291.633882 
L 196.350008 290.778033 
L 196.674988 290.688533 
L 196.999967 293.776302 
L 197.324947 293.737145 
L 197.649926 290.207467 
L 197.974906 292.551263 
L 198.299885 291.337412 
L 198.624865 289.558588 
L 198.949844 291.891196 
L 199.274824 287.651108 
L 199.599803 290.201873 
L 199.924783 288.708333 
L 200.249762 284.78709 
L 200.574742 279.3779 
L 200.899722 279.568089 
L 201.224701 290.006091 
L 201.549681 287.690264 
L 202.19964 293.088266 
L 202.524619 289.631307 
L 202.849599 292.747046 
L 203.499558 292.288355 
L 203.824537 292.500919 
L 204.149517 292.327512 
L 204.474496 289.78234 
L 204.799476 291.164004 
L 205.124455 290.789221 
L 205.449435 292.338699 
L 205.774414 290.364093 
L 206.099394 292.047822 
L 206.424373 290.694127 
L 206.749353 292.791796 
L 207.074333 289.530619 
L 207.399312 291.074504 
L 207.724292 291.80729 
L 208.049271 292.84214 
L 208.374251 292.377856 
L 208.69923 292.282761 
L 209.02421 289.536213 
L 209.674169 293.725958 
L 209.999148 291.270286 
L 210.324128 291.673039 
L 210.649107 294.447556 
L 210.974087 292.489731 
L 211.299066 294.067179 
L 211.624046 294.369243 
L 212.274005 292.4282 
L 212.598984 294.771996 
L 212.923964 292.215636 
L 213.248943 293.546957 
L 213.573923 293.228111 
L 213.898903 290.576657 
L 214.548862 294.307711 
L 215.198821 292.657545 
L 215.5238 293.116235 
L 215.84878 293.306424 
L 216.173759 294.805558 
L 216.498739 291.740164 
L 216.823718 292.72467 
L 217.148698 295.146779 
L 217.473677 293.071485 
L 217.798657 292.361074 
L 218.123636 291.029754 
L 218.448616 292.019853 
L 218.773595 293.513394 
L 219.098575 294.145492 
L 219.423554 291.225536 
L 219.748534 292.954016 
L 220.073514 290.470375 
L 220.398493 292.719077 
L 220.723473 292.67992 
L 221.373432 292.775014 
L 221.698411 292.623982 
L 222.023391 293.13861 
L 222.34837 288.272018 
L 222.67335 288.613239 
L 222.998329 292.858921 
L 223.323309 292.405825 
L 223.648288 289.849465 
L 223.973268 290.470375 
L 224.298247 291.39335 
L 224.623227 290.895503 
L 224.948206 293.502206 
L 225.273186 294.072772 
L 225.598165 294.402806 
L 225.923145 292.098166 
L 226.573104 294.665714 
L 226.898084 291.040941 
L 227.223063 290.778033 
L 227.548043 286.778477 
L 227.873022 290.201873 
L 228.198002 292.232417 
L 228.522981 291.06891 
L 228.847961 290.867534 
L 229.17294 291.18638 
L 229.49792 292.204448 
L 229.822899 294.050397 
L 230.147879 291.499632 
L 230.472858 278.046579 
L 230.797838 280.312062 
L 231.122817 279.500963 
L 231.772776 267.519077 
L 232.097756 268.783272 
L 232.422735 266.19335 
L 233.072695 250.816036 
L 233.397674 250.245469 
L 233.722654 245.625003 
L 234.047633 250.642628 
L 234.372613 247.286357 
L 234.697592 249.837123 
L 235.022572 250.79366 
L 235.347551 251.112506 
L 235.672531 249.428777 
L 235.99751 249.747623 
L 236.32249 247.677922 
L 236.647469 243.342739 
L 236.972449 245.255814 
L 237.297428 243.353927 
L 237.622408 240.691285 
L 237.947387 242.100919 
L 238.272367 240.087156 
L 238.597346 239.186557 
L 238.922326 237.262295 
L 239.247305 236.445603 
L 239.572285 235.097501 
L 239.897265 230.247689 
L 240.222244 229.727467 
L 240.547224 231.142695 
L 241.197183 227.154326 
L 241.522162 226.992107 
L 241.847142 228.228333 
L 242.172121 226.729199 
L 242.497101 223.691774 
L 242.82208 219.423716 
L 243.14706 219.865625 
L 243.472039 220.794193 
L 244.121998 217.320453 
L 244.446978 218.937057 
L 244.771957 216.235259 
L 245.096937 218.841962 
L 245.421916 217.119077 
L 245.746896 218.036457 
L 246.071876 217.28689 
L 246.721835 214.769687 
L 247.046814 220.76063 
L 247.371794 221.398322 
L 247.696773 220.604004 
L 248.021753 217.432329 
L 248.346732 221.241696 
L 248.671712 223.233083 
L 248.996691 222.953394 
L 249.321671 221.375947 
L 249.64665 222.198233 
L 249.97163 222.668111 
L 250.621589 219.502029 
L 250.946568 217.270109 
L 251.271548 217.767956 
L 251.596527 216.408666 
L 251.921507 216.9177 
L 252.246486 213.958588 
L 252.571466 215.558411 
L 252.896446 212.554548 
L 253.221425 214.148777 
L 253.546405 214.243871 
L 253.871384 210.490442 
L 254.196364 208.991307 
L 254.521343 205.590286 
L 254.846323 205.081252 
L 255.171302 205.271441 
L 255.496282 203.179365 
L 255.821261 203.403117 
L 256.146241 200.583849 
L 256.47122 200.533505 
L 257.446159 188.389398 
L 257.771138 187.46083 
L 258.096118 187.119609 
L 258.746077 181.520231 
L 259.071057 175.88729 
L 259.396036 173.28618 
L 259.721016 172.391174 
L 260.045995 172.838677 
L 260.695954 169.773283 
L 261.020934 171.686357 
L 261.345913 170.075347 
L 261.995872 168.592994 
L 262.320852 168.978966 
L 262.645831 171.09901 
L 262.970811 171.328355 
L 263.29579 168.827933 
L 263.945749 170.645913 
L 264.270729 173.890309 
L 264.595708 181.978921 
L 265.245667 178.186335 
L 265.895627 175.781008 
L 266.220606 173.711307 
L 266.870565 171.624826 
L 267.195545 169.096435 
L 267.520524 169.364937 
L 267.845504 166.596013 
L 268.170483 170.086535 
L 268.495463 167.837834 
L 268.820442 168.223805 
L 269.145422 167.09386 
L 269.470401 168.12871 
L 269.795381 164.050841 
L 270.12036 163.379587 
L 270.44534 166.484138 
L 270.770319 167.446269 
L 271.095299 164.850752 
L 271.420278 164.49275 
L 271.745258 164.761252 
L 272.070238 166.092573 
L 272.395217 166.422606 
L 272.720197 165.796102 
L 273.045176 168.469931 
L 273.370156 164.716502 
L 273.695135 167.334393 
L 274.020115 166.042229 
L 274.345094 166.098166 
L 274.670074 166.333105 
L 274.995053 165.426912 
L 275.645012 160.526757 
L 275.969992 156.488044 
L 276.294971 149.171374 
L 276.619951 163.530619 
L 276.94493 163.25093 
L 277.26991 160.929509 
L 277.594889 162.741896 
L 277.919869 162.059454 
L 278.244848 152.186424 
L 278.569828 158.781496 
L 279.219787 137.044049 
L 279.544767 141.155481 
L 279.869746 142.63224 
L 280.194726 141.038011 
L 280.519705 141.899454 
L 280.844685 143.745403 
L 281.169664 141.703671 
L 281.494644 141.345669 
L 281.819623 140.254881 
L 282.144603 142.665802 
L 282.469582 142.744115 
L 282.794562 139.751441 
L 283.119541 142.14558 
L 283.444521 141.384826 
L 283.7695 140.165381 
L 284.09448 142.458832 
L 284.419459 143.834903 
L 284.744439 141.927423 
L 285.069419 142.044892 
L 285.394398 140.143006 
L 285.719378 143.516058 
L 286.044357 140.573727 
L 286.369337 140.551352 
L 286.694316 141.496701 
L 287.019296 140.344382 
L 287.344275 141.513483 
L 287.669255 139.264781 
L 287.994234 138.492839 
L 288.319214 138.571152 
L 288.644193 135.98123 
L 288.969173 139.091374 
L 289.294152 139.080186 
L 289.619132 138.912373 
L 289.944111 141.401607 
L 290.269091 140.635259 
L 290.59407 140.819853 
L 290.91905 140.786291 
L 291.569009 137.150331 
L 291.893989 141.121918 
L 292.218968 138.884404 
L 292.543948 141.630952 
L 293.193907 137.351707 
L 293.518886 141.575014 
L 293.843866 139.298344 
L 294.168845 138.733372 
L 294.493825 120.251507 
L 294.818804 94.631973 
L 295.143784 94.033438 
L 296.118722 102.826868 
L 296.768681 99.644004 
L 297.093661 101.081607 
L 297.41864 100.622917 
L 297.74362 101.422828 
L 298.0686 138.917967 
L 298.393579 129.156812 
L 298.718559 132.205425 
L 299.043538 131.332795 
L 299.368518 133.973061 
L 299.693497 130.269976 
L 300.018477 130.404226 
L 300.343456 129.867223 
L 300.668436 132.938211 
L 300.993415 129.593128 
L 301.318395 132.876679 
L 301.643374 134.230375 
L 301.968354 132.244582 
L 302.293333 138.778122 
L 302.618313 141.52467 
L 302.943292 140.019942 
L 303.268272 139.270375 
L 303.918231 138.655059 
L 304.24321 139.091374 
L 304.56819 139.818566 
L 304.89317 141.02123 
L 305.868108 134.420564 
L 306.193088 138.313838 
L 306.518067 137.452395 
L 306.843047 140.747134 
L 307.168026 139.387845 
L 307.493006 141.200231 
L 307.817985 138.039743 
L 308.142965 137.905492 
L 308.467944 138.498433 
L 308.792924 139.516502 
L 309.117903 138.962717 
L 309.442883 139.880098 
L 309.767862 137.441208 
L 310.092842 139.840941 
L 310.417821 134.498877 
L 310.742801 138.05093 
L 311.067781 136.64689 
L 311.39276 139.639565 
L 311.71774 138.173993 
L 312.042719 135.729509 
L 312.367699 137.922273 
L 312.692678 136.417545 
L 313.017658 136.60214 
L 313.342637 137.955836 
L 313.667617 137.183893 
L 313.992596 137.418832 
L 314.317576 134.845691 
L 314.642555 133.771685 
L 314.967535 134.722628 
L 315.292514 137.418832 
L 315.617494 135.886135 
L 315.942473 135.874948 
L 316.267453 128.082806 
L 316.592432 129.682628 
L 316.917412 132.417989 
L 317.242391 131.025137 
L 317.567371 131.299232 
L 317.892351 131.293638 
L 318.21733 128.217057 
L 318.54231 130.73426 
L 318.867289 129.112062 
L 319.192269 130.135725 
L 319.517248 53.568 
L 319.842228 76.726269 
L 320.167207 74.404848 
L 320.492187 77.772306 
L 320.817166 77.352772 
L 321.142146 79.09244 
L 321.467125 77.537367 
L 321.792105 77.313616 
L 322.117084 78.493905 
L 322.442064 77.285647 
L 322.767043 78.907845 
L 323.092023 76.429798 
L 323.417002 88.204715 
L 323.741982 54.116191 
L 324.066962 55.973327 
L 324.391941 56.901896 
L 324.716921 55.229354 
L 325.36688 58.501718 
L 326.341818 54.105003 
L 326.666798 55.91739 
L 326.991777 56.616613 
L 327.316757 58.300342 
L 327.641736 57.008178 
L 327.966716 58.015059 
L 328.291695 59.441474 
L 328.616675 56.12436 
L 328.941654 56.297767 
L 329.266634 57.5284 
L 329.591613 55.598544 
L 330.241572 59.475037 
L 330.566552 57.108866 
L 330.891532 56.398455 
L 331.216511 58.322717 
L 331.541491 59.189754 
L 331.86647 55.067134 
L 332.19145 56.174704 
L 332.516429 54.345536 
L 332.841409 57.953527 
L 333.166388 55.805514 
L 333.491368 59.284848 
L 333.816347 58.19406 
L 334.141327 59.603694 
L 334.466306 57.903183 
L 334.791286 60.370042 
L 335.116265 60.269354 
L 335.441245 58.982784 
L 335.766224 61.276235 
L 336.091204 59.251285 
L 336.416183 62.115303 
L 336.741163 59.821851 
L 337.066143 59.413505 
L 337.391122 117.628022 
L 337.716102 114.62416 
L 338.041081 114.327689 
L 338.366061 116.492484 
L 338.69104 114.976568 
L 339.01602 116.391796 
L 339.340999 115.429665 
L 339.665979 116.425358 
L 339.990958 115.748511 
L 340.315938 119.485159 
L 340.640917 114.680098 
L 340.965897 118.931374 
L 341.290876 118.276901 
L 341.615856 116.156857 
L 341.940835 119.188688 
L 342.265815 117.644804 
L 342.590794 117.997212 
L 342.915774 118.847467 
L 343.240753 118.483871 
L 343.565733 117.851774 
L 343.890713 117.700741 
L 344.215692 114.982162 
L 344.540672 116.867267 
L 344.865651 115.396102 
L 345.190631 115.709354 
L 345.51561 120.184382 
L 345.84059 119.680941 
L 346.165569 120.408133 
L 346.490549 118.791529 
L 346.815528 120.74376 
L 347.140508 118.534215 
L 347.465487 118.310464 
L 347.790467 114.227001 
L 348.115446 107.732617 
L 348.440426 107.715836 
L 348.765405 107.273927 
L 349.090385 124.983849 
L 349.415364 129.486846 
L 349.740344 136.535014 
L 350.065324 138.319432 
L 350.715283 169.454437 
L 351.040262 169.415281 
L 351.690221 168.548244 
L 352.015201 165.214349 
L 352.34018 163.41315 
L 352.66516 167.082673 
L 352.990139 167.558144 
L 353.315119 166.366668 
L 353.965078 168.61537 
L 354.615037 169.275436 
L 354.940016 164.213061 
L 355.264996 163.407556 
L 355.914955 162.501363 
L 356.239934 143.66709 
L 356.564914 141.726047 
L 356.889894 144.70194 
L 357.214873 144.411063 
L 357.539853 143.862872 
L 357.864832 142.397301 
L 358.189812 141.933017 
L 358.514791 160.308599 
L 358.839771 159.167467 
L 359.16475 165.007378 
L 359.48973 162.624426 
L 359.814709 161.237168 
L 360.139689 162.081829 
L 360.464668 164.039654 
L 360.789648 163.910997 
L 361.114627 163.955747 
L 361.439607 163.262118 
L 361.764586 160.168755 
L 362.089566 162.361518 
L 362.414545 162.646801 
L 362.739525 162.663583 
L 363.064505 161.34345 
L 363.389484 163.491463 
L 363.714464 162.982428 
L 364.039443 161.735014 
L 364.364423 163.463494 
L 364.689402 162.864959 
L 365.014382 162.965647 
L 365.339361 163.530619 
L 365.98932 161.63992 
L 366.3143 163.765558 
L 366.964259 166.545669 
L 367.614218 164.643782 
L 367.939197 164.268999 
L 368.264177 162.646801 
L 368.589156 163.111085 
L 368.914136 160.068067 
L 369.239115 163.25093 
L 369.889075 167.485425 
L 370.214054 167.709176 
L 370.539034 148.08618 
L 370.864013 145.602539 
L 371.188993 145.546602 
L 371.513972 148.841341 
L 371.838952 147.353394 
L 372.163931 148.768622 
L 372.488911 148.371463 
L 372.81389 149.188155 
L 373.13887 148.074992 
L 373.463849 150.116724 
L 373.788829 149.411907 
L 374.113808 150.088755 
L 374.438788 147.39255 
L 374.763767 149.322406 
L 375.088747 149.976879 
L 375.413726 147.55477 
L 375.738706 149.719565 
L 376.063686 149.188155 
L 376.388665 148.170087 
L 376.713645 148.511307 
L 377.038624 149.892972 
L 377.363604 147.230331 
L 377.688583 147.593927 
L 378.013563 148.343494 
L 378.338542 149.395125 
L 378.663522 146.581452 
L 378.988501 146.894704 
L 379.313481 149.389532 
L 379.63846 150.457945 
L 379.96344 146.575858 
L 380.288419 148.863716 
L 380.613399 145.479476 
L 380.938378 148.432994 
L 381.263358 146.838766 
L 381.588337 147.196768 
L 381.913317 149.048311 
L 382.238296 148.203649 
L 382.563276 145.820697 
L 382.888256 147.420519 
L 383.213235 146.15073 
L 383.538215 147.51002 
L 383.863194 149.932129 
L 384.188174 147.18558 
L 384.513153 147.828866 
L 384.838133 147.834459 
L 385.488092 169.476812 
L 385.813071 166.596013 
L 386.138051 165.287068 
L 386.46303 166.551263 
L 386.78801 165.292661 
L 387.112989 167.636457 
L 387.437969 165.091285 
L 387.762948 164.045248 
L 388.737887 167.513394 
L 389.062867 162.657989 
L 389.387846 165.829665 
L 389.712826 164.481563 
L 390.037805 167.021141 
L 390.362785 166.775014 
L 390.687764 166.114948 
L 391.012744 147.124049 
L 391.337723 146.22345 
L 391.662703 146.234637 
L 391.987682 145.283694 
L 392.312662 148.354681 
L 392.637641 148.975592 
L 392.962621 146.704515 
L 393.2876 147.649865 
L 393.61258 149.523782 
L 393.937559 147.828866 
L 394.262539 148.824559 
L 394.587518 146.072417 
L 395.562457 148.432994 
L 395.887437 148.052617 
L 396.862375 148.667933 
L 397.187355 146.542295 
L 397.512334 147.470863 
L 397.837314 146.877922 
L 398.162293 147.76174 
L 398.487273 146.922673 
L 398.487273 146.922673 
" style="fill:none;stroke:#1f77b4;stroke-linecap:square;stroke-width:1.5;"/>
   </g>
   <g id="patch_3">
    <path d="M 57.6 307.584 
L 57.6 41.472 
" style="fill:none;stroke:#000000;stroke-linecap:square;stroke-linejoin:miter;stroke-width:0.8;"/>
   </g>
   <g id="patch_4">
    <path d="M 414.72 307.584 
L 414.72 41.472 
" style="fill:none;stroke:#000000;stroke-linecap:square;stroke-linejoin:miter;stroke-width:0.8;"/>
   </g>
   <g id="patch_5">
    <path d="M 57.6 307.584 
L 414.72 307.584 
" style="fill:none;stroke:#000000;stroke-linecap:square;stroke-linejoin:miter;stroke-width:0.8;"/>
   </g>
   <g id="patch_6">
    <path d="M 57.6 41.472 
L 414.72 41.472 
" style="fill:none;stroke:#000000;stroke-linecap:square;stroke-linejoin:miter;stroke-width:0.8;"/>
   </g>
   <g id="text_18">
    <!-- Memory usage vs Training Cycles -->
    <defs>
     <path d="M 2.984375 54.6875 
L 12.5 54.6875 
L 29.59375 8.796875 
L 46.6875 54.6875 
L 56.203125 54.6875 
L 35.6875 0 
L 23.484375 0 
z
" id="DejaVuSans-76"/>
     <path d="M -0.296875 72.90625 
L 61.375 72.90625 
L 61.375 64.59375 
L 35.5 64.59375 
L 35.5 0 
L 25.59375 0 
L 25.59375 64.59375 
L -0.296875 64.59375 
z
" id="DejaVuSans-54"/>
     <path d="M 9.421875 54.6875 
L 18.40625 54.6875 
L 18.40625 0 
L 9.421875 0 
z
M 9.421875 75.984375 
L 18.40625 75.984375 
L 18.40625 64.59375 
L 9.421875 64.59375 
z
" id="DejaVuSans-69"/>
     <path d="M 54.890625 33.015625 
L 54.890625 0 
L 45.90625 0 
L 45.90625 32.71875 
Q 45.90625 40.484375 42.875 44.328125 
Q 39.84375 48.1875 33.796875 48.1875 
Q 26.515625 48.1875 22.3125 43.546875 
Q 18.109375 38.921875 18.109375 30.90625 
L 18.109375 0 
L 9.078125 0 
L 9.078125 54.6875 
L 18.109375 54.6875 
L 18.109375 46.1875 
Q 21.34375 51.125 25.703125 53.5625 
Q 30.078125 56 35.796875 56 
Q 45.21875 56 50.046875 50.171875 
Q 54.890625 44.34375 54.890625 33.015625 
z
" id="DejaVuSans-6e"/>
    </defs>
    <g transform="translate(118.467031 35.472)scale(0.14 -0.14)">
     <use xlink:href="#DejaVuSans-4d"/>
     <use x="86.279297" xlink:href="#DejaVuSans-65"/>
     <use x="147.802734" xlink:href="#DejaVuSans-6d"/>
     <use x="245.214844" xlink:href="#DejaVuSans-6f"/>
     <use x="306.396484" xlink:href="#DejaVuSans-72"/>
     <use x="347.509766" xlink:href="#DejaVuSans-79"/>
     <use x="406.689453" xlink:href="#DejaVuSans-20"/>
     <use x="438.476562" xlink:href="#DejaVuSans-75"/>
     <use x="501.855469" xlink:href="#DejaVuSans-73"/>
     <use x="553.955078" xlink:href="#DejaVuSans-61"/>
     <use x="615.234375" xlink:href="#DejaVuSans-67"/>
     <use x="678.710938" xlink:href="#DejaVuSans-65"/>
     <use x="740.234375" xlink:href="#DejaVuSans-20"/>
     <use x="772.021484" xlink:href="#DejaVuSans-76"/>
     <use x="831.201172" xlink:href="#DejaVuSans-73"/>
     <use x="883.300781" xlink:href="#DejaVuSans-20"/>
     <use x="915.087891" xlink:href="#DejaVuSans-54"/>
     <use x="975.953125" xlink:href="#DejaVuSans-72"/>
     <use x="1017.066406" xlink:href="#DejaVuSans-61"/>
     <use x="1078.345703" xlink:href="#DejaVuSans-69"/>
     <use x="1106.128906" xlink:href="#DejaVuSans-6e"/>
     <use x="1169.507812" xlink:href="#DejaVuSans-69"/>
     <use x="1197.291016" xlink:href="#DejaVuSans-6e"/>
     <use x="1260.669922" xlink:href="#DejaVuSans-67"/>
     <use x="1324.146484" xlink:href="#DejaVuSans-20"/>
     <use x="1355.933594" xlink:href="#DejaVuSans-43"/>
     <use x="1425.757812" xlink:href="#DejaVuSans-79"/>
     <use x="1484.9375" xlink:href="#DejaVuSans-63"/>
     <use x="1539.917969" xlink:href="#DejaVuSans-6c"/>
     <use x="1567.701172" xlink:href="#DejaVuSans-65"/>
     <use x="1629.224609" xlink:href="#DejaVuSans-73"/>
    </g>
   </g>
  </g>
 </g>
 <defs>
  <clipPath id="pf477b02ecb">
   <rect height="266.112" width="357.12" x="57.6" y="41.472"/>
  </clipPath>
 </defs>
</svg>
