<?xml version="1.0" encoding="utf-8" standalone="no"?>
<!DOCTYPE svg PUBLIC "-//W3C//DTD SVG 1.1//EN"
  "http://www.w3.org/Graphics/SVG/1.1/DTD/svg11.dtd">
<!-- Created with matplotlib (http://matplotlib.org/) -->
<svg height="345pt" version="1.1" viewBox="0 0 460 345" width="460pt" xmlns="http://www.w3.org/2000/svg" xmlns:xlink="http://www.w3.org/1999/xlink">
 <defs>
  <style type="text/css">
*{stroke-linecap:butt;stroke-linejoin:round;}
  </style>
 </defs>
 <g id="figure_1">
  <g id="patch_1">
   <path d="M 0 345.6 
L 460.8 345.6 
L 460.8 0 
L 0 0 
z
" style="fill:#ffffff;"/>
  </g>
  <g id="axes_1">
   <g id="patch_2">
    <path d="M 57.6 307.584 
L 414.72 307.584 
L 414.72 41.472 
L 57.6 41.472 
z
" style="fill:#ffffff;"/>
   </g>
   <g id="matplotlib.axis_1">
    <g id="xtick_1">
     <g id="line2d_1">
      <defs>
       <path d="M 0 0 
L 0 3.5 
" id="m482f875db0" style="stroke:#000000;stroke-width:0.8;"/>
      </defs>
      <g>
       <use style="stroke:#000000;stroke-width:0.8;" x="73.832727" xlink:href="#m482f875db0" y="307.584"/>
      </g>
     </g>
     <g id="text_1">
      <!-- 0 -->
      <defs>
       <path d="M 31.78125 66.40625 
Q 24.171875 66.40625 20.328125 58.90625 
Q 16.5 51.421875 16.5 36.375 
Q 16.5 21.390625 20.328125 13.890625 
Q 24.171875 6.390625 31.78125 6.390625 
Q 39.453125 6.390625 43.28125 13.890625 
Q 47.125 21.390625 47.125 36.375 
Q 47.125 51.421875 43.28125 58.90625 
Q 39.453125 66.40625 31.78125 66.40625 
z
M 31.78125 74.21875 
Q 44.046875 74.21875 50.515625 64.515625 
Q 56.984375 54.828125 56.984375 36.375 
Q 56.984375 17.96875 50.515625 8.265625 
Q 44.046875 -1.421875 31.78125 -1.421875 
Q 19.53125 -1.421875 13.0625 8.265625 
Q 6.59375 17.96875 6.59375 36.375 
Q 6.59375 54.828125 13.0625 64.515625 
Q 19.53125 74.21875 31.78125 74.21875 
z
" id="DejaVuSans-30"/>
      </defs>
      <g transform="translate(70.651477 322.182437)scale(0.1 -0.1)">
       <use xlink:href="#DejaVuSans-30"/>
      </g>
     </g>
    </g>
    <g id="xtick_2">
     <g id="line2d_2">
      <g>
       <use style="stroke:#000000;stroke-width:0.8;" x="138.828632" xlink:href="#m482f875db0" y="307.584"/>
      </g>
     </g>
     <g id="text_2">
      <!-- 200 -->
      <defs>
       <path d="M 19.1875 8.296875 
L 53.609375 8.296875 
L 53.609375 0 
L 7.328125 0 
L 7.328125 8.296875 
Q 12.9375 14.109375 22.625 23.890625 
Q 32.328125 33.6875 34.8125 36.53125 
Q 39.546875 41.84375 41.421875 45.53125 
Q 43.3125 49.21875 43.3125 52.78125 
Q 43.3125 58.59375 39.234375 62.25 
Q 35.15625 65.921875 28.609375 65.921875 
Q 23.96875 65.921875 18.8125 64.3125 
Q 13.671875 62.703125 7.8125 59.421875 
L 7.8125 69.390625 
Q 13.765625 71.78125 18.9375 73 
Q 24.125 74.21875 28.421875 74.21875 
Q 39.75 74.21875 46.484375 68.546875 
Q 53.21875 62.890625 53.21875 53.421875 
Q 53.21875 48.921875 51.53125 44.890625 
Q 49.859375 40.875 45.40625 35.40625 
Q 44.1875 33.984375 37.640625 27.21875 
Q 31.109375 20.453125 19.1875 8.296875 
z
" id="DejaVuSans-32"/>
      </defs>
      <g transform="translate(129.284882 322.182437)scale(0.1 -0.1)">
       <use xlink:href="#DejaVuSans-32"/>
       <use x="63.623047" xlink:href="#DejaVuSans-30"/>
       <use x="127.246094" xlink:href="#DejaVuSans-30"/>
      </g>
     </g>
    </g>
    <g id="xtick_3">
     <g id="line2d_3">
      <g>
       <use style="stroke:#000000;stroke-width:0.8;" x="203.824537" xlink:href="#m482f875db0" y="307.584"/>
      </g>
     </g>
     <g id="text_3">
      <!-- 400 -->
      <defs>
       <path d="M 37.796875 64.3125 
L 12.890625 25.390625 
L 37.796875 25.390625 
z
M 35.203125 72.90625 
L 47.609375 72.90625 
L 47.609375 25.390625 
L 58.015625 25.390625 
L 58.015625 17.1875 
L 47.609375 17.1875 
L 47.609375 0 
L 37.796875 0 
L 37.796875 17.1875 
L 4.890625 17.1875 
L 4.890625 26.703125 
z
" id="DejaVuSans-34"/>
      </defs>
      <g transform="translate(194.280787 322.182437)scale(0.1 -0.1)">
       <use xlink:href="#DejaVuSans-34"/>
       <use x="63.623047" xlink:href="#DejaVuSans-30"/>
       <use x="127.246094" xlink:href="#DejaVuSans-30"/>
      </g>
     </g>
    </g>
    <g id="xtick_4">
     <g id="line2d_4">
      <g>
       <use style="stroke:#000000;stroke-width:0.8;" x="268.820442" xlink:href="#m482f875db0" y="307.584"/>
      </g>
     </g>
     <g id="text_4">
      <!-- 600 -->
      <defs>
       <path d="M 33.015625 40.375 
Q 26.375 40.375 22.484375 35.828125 
Q 18.609375 31.296875 18.609375 23.390625 
Q 18.609375 15.53125 22.484375 10.953125 
Q 26.375 6.390625 33.015625 6.390625 
Q 39.65625 6.390625 43.53125 10.953125 
Q 47.40625 15.53125 47.40625 23.390625 
Q 47.40625 31.296875 43.53125 35.828125 
Q 39.65625 40.375 33.015625 40.375 
z
M 52.59375 71.296875 
L 52.59375 62.3125 
Q 48.875 64.0625 45.09375 64.984375 
Q 41.3125 65.921875 37.59375 65.921875 
Q 27.828125 65.921875 22.671875 59.328125 
Q 17.53125 52.734375 16.796875 39.40625 
Q 19.671875 43.65625 24.015625 45.921875 
Q 28.375 48.1875 33.59375 48.1875 
Q 44.578125 48.1875 50.953125 41.515625 
Q 57.328125 34.859375 57.328125 23.390625 
Q 57.328125 12.15625 50.6875 5.359375 
Q 44.046875 -1.421875 33.015625 -1.421875 
Q 20.359375 -1.421875 13.671875 8.265625 
Q 6.984375 17.96875 6.984375 36.375 
Q 6.984375 53.65625 15.1875 63.9375 
Q 23.390625 74.21875 37.203125 74.21875 
Q 40.921875 74.21875 44.703125 73.484375 
Q 48.484375 72.75 52.59375 71.296875 
z
" id="DejaVuSans-36"/>
      </defs>
      <g transform="translate(259.276692 322.182437)scale(0.1 -0.1)">
       <use xlink:href="#DejaVuSans-36"/>
       <use x="63.623047" xlink:href="#DejaVuSans-30"/>
       <use x="127.246094" xlink:href="#DejaVuSans-30"/>
      </g>
     </g>
    </g>
    <g id="xtick_5">
     <g id="line2d_5">
      <g>
       <use style="stroke:#000000;stroke-width:0.8;" x="333.816347" xlink:href="#m482f875db0" y="307.584"/>
      </g>
     </g>
     <g id="text_5">
      <!-- 800 -->
      <defs>
       <path d="M 31.78125 34.625 
Q 24.75 34.625 20.71875 30.859375 
Q 16.703125 27.09375 16.703125 20.515625 
Q 16.703125 13.921875 20.71875 10.15625 
Q 24.75 6.390625 31.78125 6.390625 
Q 38.8125 6.390625 42.859375 10.171875 
Q 46.921875 13.96875 46.921875 20.515625 
Q 46.921875 27.09375 42.890625 30.859375 
Q 38.875 34.625 31.78125 34.625 
z
M 21.921875 38.8125 
Q 15.578125 40.375 12.03125 44.71875 
Q 8.5 49.078125 8.5 55.328125 
Q 8.5 64.0625 14.71875 69.140625 
Q 20.953125 74.21875 31.78125 74.21875 
Q 42.671875 74.21875 48.875 69.140625 
Q 55.078125 64.0625 55.078125 55.328125 
Q 55.078125 49.078125 51.53125 44.71875 
Q 48 40.375 41.703125 38.8125 
Q 48.828125 37.15625 52.796875 32.3125 
Q 56.78125 27.484375 56.78125 20.515625 
Q 56.78125 9.90625 50.3125 4.234375 
Q 43.84375 -1.421875 31.78125 -1.421875 
Q 19.734375 -1.421875 13.25 4.234375 
Q 6.78125 9.90625 6.78125 20.515625 
Q 6.78125 27.484375 10.78125 32.3125 
Q 14.796875 37.15625 21.921875 38.8125 
z
M 18.3125 54.390625 
Q 18.3125 48.734375 21.84375 45.5625 
Q 25.390625 42.390625 31.78125 42.390625 
Q 38.140625 42.390625 41.71875 45.5625 
Q 45.3125 48.734375 45.3125 54.390625 
Q 45.3125 60.0625 41.71875 63.234375 
Q 38.140625 66.40625 31.78125 66.40625 
Q 25.390625 66.40625 21.84375 63.234375 
Q 18.3125 60.0625 18.3125 54.390625 
z
" id="DejaVuSans-38"/>
      </defs>
      <g transform="translate(324.272597 322.182437)scale(0.1 -0.1)">
       <use xlink:href="#DejaVuSans-38"/>
       <use x="63.623047" xlink:href="#DejaVuSans-30"/>
       <use x="127.246094" xlink:href="#DejaVuSans-30"/>
      </g>
     </g>
    </g>
    <g id="xtick_6">
     <g id="line2d_6">
      <g>
       <use style="stroke:#000000;stroke-width:0.8;" x="398.812252" xlink:href="#m482f875db0" y="307.584"/>
      </g>
     </g>
     <g id="text_6">
      <!-- 1000 -->
      <defs>
       <path d="M 12.40625 8.296875 
L 28.515625 8.296875 
L 28.515625 63.921875 
L 10.984375 60.40625 
L 10.984375 69.390625 
L 28.421875 72.90625 
L 38.28125 72.90625 
L 38.28125 8.296875 
L 54.390625 8.296875 
L 54.390625 0 
L 12.40625 0 
z
" id="DejaVuSans-31"/>
      </defs>
      <g transform="translate(386.087252 322.182437)scale(0.1 -0.1)">
       <use xlink:href="#DejaVuSans-31"/>
       <use x="63.623047" xlink:href="#DejaVuSans-30"/>
       <use x="127.246094" xlink:href="#DejaVuSans-30"/>
       <use x="190.869141" xlink:href="#DejaVuSans-30"/>
      </g>
     </g>
    </g>
    <g id="text_7">
     <!-- Cycles -->
     <defs>
      <path d="M 64.40625 67.28125 
L 64.40625 56.890625 
Q 59.421875 61.53125 53.78125 63.8125 
Q 48.140625 66.109375 41.796875 66.109375 
Q 29.296875 66.109375 22.65625 58.46875 
Q 16.015625 50.828125 16.015625 36.375 
Q 16.015625 21.96875 22.65625 14.328125 
Q 29.296875 6.6875 41.796875 6.6875 
Q 48.140625 6.6875 53.78125 8.984375 
Q 59.421875 11.28125 64.40625 15.921875 
L 64.40625 5.609375 
Q 59.234375 2.09375 53.4375 0.328125 
Q 47.65625 -1.421875 41.21875 -1.421875 
Q 24.65625 -1.421875 15.125 8.703125 
Q 5.609375 18.84375 5.609375 36.375 
Q 5.609375 53.953125 15.125 64.078125 
Q 24.65625 74.21875 41.21875 74.21875 
Q 47.75 74.21875 53.53125 72.484375 
Q 59.328125 70.75 64.40625 67.28125 
z
" id="DejaVuSans-43"/>
      <path d="M 32.171875 -5.078125 
Q 28.375 -14.84375 24.75 -17.8125 
Q 21.140625 -20.796875 15.09375 -20.796875 
L 7.90625 -20.796875 
L 7.90625 -13.28125 
L 13.1875 -13.28125 
Q 16.890625 -13.28125 18.9375 -11.515625 
Q 21 -9.765625 23.484375 -3.21875 
L 25.09375 0.875 
L 2.984375 54.6875 
L 12.5 54.6875 
L 29.59375 11.921875 
L 46.6875 54.6875 
L 56.203125 54.6875 
z
" id="DejaVuSans-79"/>
      <path d="M 48.78125 52.59375 
L 48.78125 44.1875 
Q 44.96875 46.296875 41.140625 47.34375 
Q 37.3125 48.390625 33.40625 48.390625 
Q 24.65625 48.390625 19.8125 42.84375 
Q 14.984375 37.3125 14.984375 27.296875 
Q 14.984375 17.28125 19.8125 11.734375 
Q 24.65625 6.203125 33.40625 6.203125 
Q 37.3125 6.203125 41.140625 7.25 
Q 44.96875 8.296875 48.78125 10.40625 
L 48.78125 2.09375 
Q 45.015625 0.34375 40.984375 -0.53125 
Q 36.96875 -1.421875 32.421875 -1.421875 
Q 20.0625 -1.421875 12.78125 6.34375 
Q 5.515625 14.109375 5.515625 27.296875 
Q 5.515625 40.671875 12.859375 48.328125 
Q 20.21875 56 33.015625 56 
Q 37.15625 56 41.109375 55.140625 
Q 45.0625 54.296875 48.78125 52.59375 
z
" id="DejaVuSans-63"/>
      <path d="M 9.421875 75.984375 
L 18.40625 75.984375 
L 18.40625 0 
L 9.421875 0 
z
" id="DejaVuSans-6c"/>
      <path d="M 56.203125 29.59375 
L 56.203125 25.203125 
L 14.890625 25.203125 
Q 15.484375 15.921875 20.484375 11.0625 
Q 25.484375 6.203125 34.421875 6.203125 
Q 39.59375 6.203125 44.453125 7.46875 
Q 49.3125 8.734375 54.109375 11.28125 
L 54.109375 2.78125 
Q 49.265625 0.734375 44.1875 -0.34375 
Q 39.109375 -1.421875 33.890625 -1.421875 
Q 20.796875 -1.421875 13.15625 6.1875 
Q 5.515625 13.8125 5.515625 26.8125 
Q 5.515625 40.234375 12.765625 48.109375 
Q 20.015625 56 32.328125 56 
Q 43.359375 56 49.78125 48.890625 
Q 56.203125 41.796875 56.203125 29.59375 
z
M 47.21875 32.234375 
Q 47.125 39.59375 43.09375 43.984375 
Q 39.0625 48.390625 32.421875 48.390625 
Q 24.90625 48.390625 20.390625 44.140625 
Q 15.875 39.890625 15.1875 32.171875 
z
" id="DejaVuSans-65"/>
      <path d="M 44.28125 53.078125 
L 44.28125 44.578125 
Q 40.484375 46.53125 36.375 47.5 
Q 32.28125 48.484375 27.875 48.484375 
Q 21.1875 48.484375 17.84375 46.4375 
Q 14.5 44.390625 14.5 40.28125 
Q 14.5 37.15625 16.890625 35.375 
Q 19.28125 33.59375 26.515625 31.984375 
L 29.59375 31.296875 
Q 39.15625 29.25 43.1875 25.515625 
Q 47.21875 21.78125 47.21875 15.09375 
Q 47.21875 7.46875 41.1875 3.015625 
Q 35.15625 -1.421875 24.609375 -1.421875 
Q 20.21875 -1.421875 15.453125 -0.5625 
Q 10.6875 0.296875 5.421875 2 
L 5.421875 11.28125 
Q 10.40625 8.6875 15.234375 7.390625 
Q 20.0625 6.109375 24.8125 6.109375 
Q 31.15625 6.109375 34.5625 8.28125 
Q 37.984375 10.453125 37.984375 14.40625 
Q 37.984375 18.0625 35.515625 20.015625 
Q 33.0625 21.96875 24.703125 23.78125 
L 21.578125 24.515625 
Q 13.234375 26.265625 9.515625 29.90625 
Q 5.8125 33.546875 5.8125 39.890625 
Q 5.8125 47.609375 11.28125 51.796875 
Q 16.75 56 26.8125 56 
Q 31.78125 56 36.171875 55.265625 
Q 40.578125 54.546875 44.28125 53.078125 
z
" id="DejaVuSans-73"/>
     </defs>
     <g transform="translate(219.889688 335.860562)scale(0.1 -0.1)">
      <use xlink:href="#DejaVuSans-43"/>
      <use x="69.824219" xlink:href="#DejaVuSans-79"/>
      <use x="129.003906" xlink:href="#DejaVuSans-63"/>
      <use x="183.984375" xlink:href="#DejaVuSans-6c"/>
      <use x="211.767578" xlink:href="#DejaVuSans-65"/>
      <use x="273.291016" xlink:href="#DejaVuSans-73"/>
     </g>
    </g>
   </g>
   <g id="matplotlib.axis_2">
    <g id="ytick_1">
     <g id="line2d_7">
      <defs>
       <path d="M 0 0 
L -3.5 0 
" id="me4ff2e4f76" style="stroke:#000000;stroke-width:0.8;"/>
      </defs>
      <g>
       <use style="stroke:#000000;stroke-width:0.8;" x="57.6" xlink:href="#me4ff2e4f76" y="285.872401"/>
      </g>
     </g>
     <g id="text_8">
      <!-- 7.62 -->
      <defs>
       <path d="M 8.203125 72.90625 
L 55.078125 72.90625 
L 55.078125 68.703125 
L 28.609375 0 
L 18.3125 0 
L 43.21875 64.59375 
L 8.203125 64.59375 
z
" id="DejaVuSans-37"/>
       <path d="M 10.6875 12.40625 
L 21 12.40625 
L 21 0 
L 10.6875 0 
z
" id="DejaVuSans-2e"/>
      </defs>
      <g transform="translate(28.334375 289.67162)scale(0.1 -0.1)">
       <use xlink:href="#DejaVuSans-37"/>
       <use x="63.623047" xlink:href="#DejaVuSans-2e"/>
       <use x="95.410156" xlink:href="#DejaVuSans-36"/>
       <use x="159.033203" xlink:href="#DejaVuSans-32"/>
      </g>
     </g>
    </g>
    <g id="ytick_2">
     <g id="line2d_8">
      <g>
       <use style="stroke:#000000;stroke-width:0.8;" x="57.6" xlink:href="#me4ff2e4f76" y="242.421728"/>
      </g>
     </g>
     <g id="text_9">
      <!-- 7.64 -->
      <g transform="translate(28.334375 246.220946)scale(0.1 -0.1)">
       <use xlink:href="#DejaVuSans-37"/>
       <use x="63.623047" xlink:href="#DejaVuSans-2e"/>
       <use x="95.410156" xlink:href="#DejaVuSans-36"/>
       <use x="159.033203" xlink:href="#DejaVuSans-34"/>
      </g>
     </g>
    </g>
    <g id="ytick_3">
     <g id="line2d_9">
      <g>
       <use style="stroke:#000000;stroke-width:0.8;" x="57.6" xlink:href="#me4ff2e4f76" y="198.971055"/>
      </g>
     </g>
     <g id="text_10">
      <!-- 7.66 -->
      <g transform="translate(28.334375 202.770273)scale(0.1 -0.1)">
       <use xlink:href="#DejaVuSans-37"/>
       <use x="63.623047" xlink:href="#DejaVuSans-2e"/>
       <use x="95.410156" xlink:href="#DejaVuSans-36"/>
       <use x="159.033203" xlink:href="#DejaVuSans-36"/>
      </g>
     </g>
    </g>
    <g id="ytick_4">
     <g id="line2d_10">
      <g>
       <use style="stroke:#000000;stroke-width:0.8;" x="57.6" xlink:href="#me4ff2e4f76" y="155.520381"/>
      </g>
     </g>
     <g id="text_11">
      <!-- 7.68 -->
      <g transform="translate(28.334375 159.3196)scale(0.1 -0.1)">
       <use xlink:href="#DejaVuSans-37"/>
       <use x="63.623047" xlink:href="#DejaVuSans-2e"/>
       <use x="95.410156" xlink:href="#DejaVuSans-36"/>
       <use x="159.033203" xlink:href="#DejaVuSans-38"/>
      </g>
     </g>
    </g>
    <g id="ytick_5">
     <g id="line2d_11">
      <g>
       <use style="stroke:#000000;stroke-width:0.8;" x="57.6" xlink:href="#me4ff2e4f76" y="112.069708"/>
      </g>
     </g>
     <g id="text_12">
      <!-- 7.70 -->
      <g transform="translate(28.334375 115.868927)scale(0.1 -0.1)">
       <use xlink:href="#DejaVuSans-37"/>
       <use x="63.623047" xlink:href="#DejaVuSans-2e"/>
       <use x="95.410156" xlink:href="#DejaVuSans-37"/>
       <use x="159.033203" xlink:href="#DejaVuSans-30"/>
      </g>
     </g>
    </g>
    <g id="ytick_6">
     <g id="line2d_12">
      <g>
       <use style="stroke:#000000;stroke-width:0.8;" x="57.6" xlink:href="#me4ff2e4f76" y="68.619035"/>
      </g>
     </g>
     <g id="text_13">
      <!-- 7.72 -->
      <g transform="translate(28.334375 72.418254)scale(0.1 -0.1)">
       <use xlink:href="#DejaVuSans-37"/>
       <use x="63.623047" xlink:href="#DejaVuSans-2e"/>
       <use x="95.410156" xlink:href="#DejaVuSans-37"/>
       <use x="159.033203" xlink:href="#DejaVuSans-32"/>
      </g>
     </g>
    </g>
    <g id="text_14">
     <!-- Memory usage -->
     <defs>
      <path d="M 9.8125 72.90625 
L 24.515625 72.90625 
L 43.109375 23.296875 
L 61.8125 72.90625 
L 76.515625 72.90625 
L 76.515625 0 
L 66.890625 0 
L 66.890625 64.015625 
L 48.09375 14.015625 
L 38.1875 14.015625 
L 19.390625 64.015625 
L 19.390625 0 
L 9.8125 0 
z
" id="DejaVuSans-4d"/>
      <path d="M 52 44.1875 
Q 55.375 50.25 60.0625 53.125 
Q 64.75 56 71.09375 56 
Q 79.640625 56 84.28125 50.015625 
Q 88.921875 44.046875 88.921875 33.015625 
L 88.921875 0 
L 79.890625 0 
L 79.890625 32.71875 
Q 79.890625 40.578125 77.09375 44.375 
Q 74.3125 48.1875 68.609375 48.1875 
Q 61.625 48.1875 57.5625 43.546875 
Q 53.515625 38.921875 53.515625 30.90625 
L 53.515625 0 
L 44.484375 0 
L 44.484375 32.71875 
Q 44.484375 40.625 41.703125 44.40625 
Q 38.921875 48.1875 33.109375 48.1875 
Q 26.21875 48.1875 22.15625 43.53125 
Q 18.109375 38.875 18.109375 30.90625 
L 18.109375 0 
L 9.078125 0 
L 9.078125 54.6875 
L 18.109375 54.6875 
L 18.109375 46.1875 
Q 21.1875 51.21875 25.484375 53.609375 
Q 29.78125 56 35.6875 56 
Q 41.65625 56 45.828125 52.96875 
Q 50 49.953125 52 44.1875 
z
" id="DejaVuSans-6d"/>
      <path d="M 30.609375 48.390625 
Q 23.390625 48.390625 19.1875 42.75 
Q 14.984375 37.109375 14.984375 27.296875 
Q 14.984375 17.484375 19.15625 11.84375 
Q 23.34375 6.203125 30.609375 6.203125 
Q 37.796875 6.203125 41.984375 11.859375 
Q 46.1875 17.53125 46.1875 27.296875 
Q 46.1875 37.015625 41.984375 42.703125 
Q 37.796875 48.390625 30.609375 48.390625 
z
M 30.609375 56 
Q 42.328125 56 49.015625 48.375 
Q 55.71875 40.765625 55.71875 27.296875 
Q 55.71875 13.875 49.015625 6.21875 
Q 42.328125 -1.421875 30.609375 -1.421875 
Q 18.84375 -1.421875 12.171875 6.21875 
Q 5.515625 13.875 5.515625 27.296875 
Q 5.515625 40.765625 12.171875 48.375 
Q 18.84375 56 30.609375 56 
z
" id="DejaVuSans-6f"/>
      <path d="M 41.109375 46.296875 
Q 39.59375 47.171875 37.8125 47.578125 
Q 36.03125 48 33.890625 48 
Q 26.265625 48 22.1875 43.046875 
Q 18.109375 38.09375 18.109375 28.8125 
L 18.109375 0 
L 9.078125 0 
L 9.078125 54.6875 
L 18.109375 54.6875 
L 18.109375 46.1875 
Q 20.953125 51.171875 25.484375 53.578125 
Q 30.03125 56 36.53125 56 
Q 37.453125 56 38.578125 55.875 
Q 39.703125 55.765625 41.0625 55.515625 
z
" id="DejaVuSans-72"/>
      <path id="DejaVuSans-20"/>
      <path d="M 8.5 21.578125 
L 8.5 54.6875 
L 17.484375 54.6875 
L 17.484375 21.921875 
Q 17.484375 14.15625 20.5 10.265625 
Q 23.53125 6.390625 29.59375 6.390625 
Q 36.859375 6.390625 41.078125 11.03125 
Q 45.3125 15.671875 45.3125 23.6875 
L 45.3125 54.6875 
L 54.296875 54.6875 
L 54.296875 0 
L 45.3125 0 
L 45.3125 8.40625 
Q 42.046875 3.421875 37.71875 1 
Q 33.40625 -1.421875 27.6875 -1.421875 
Q 18.265625 -1.421875 13.375 4.4375 
Q 8.5 10.296875 8.5 21.578125 
z
M 31.109375 56 
z
" id="DejaVuSans-75"/>
      <path d="M 34.28125 27.484375 
Q 23.390625 27.484375 19.1875 25 
Q 14.984375 22.515625 14.984375 16.5 
Q 14.984375 11.71875 18.140625 8.90625 
Q 21.296875 6.109375 26.703125 6.109375 
Q 34.1875 6.109375 38.703125 11.40625 
Q 43.21875 16.703125 43.21875 25.484375 
L 43.21875 27.484375 
z
M 52.203125 31.203125 
L 52.203125 0 
L 43.21875 0 
L 43.21875 8.296875 
Q 40.140625 3.328125 35.546875 0.953125 
Q 30.953125 -1.421875 24.3125 -1.421875 
Q 15.921875 -1.421875 10.953125 3.296875 
Q 6 8.015625 6 15.921875 
Q 6 25.140625 12.171875 29.828125 
Q 18.359375 34.515625 30.609375 34.515625 
L 43.21875 34.515625 
L 43.21875 35.40625 
Q 43.21875 41.609375 39.140625 45 
Q 35.0625 48.390625 27.6875 48.390625 
Q 23 48.390625 18.546875 47.265625 
Q 14.109375 46.140625 10.015625 43.890625 
L 10.015625 52.203125 
Q 14.9375 54.109375 19.578125 55.046875 
Q 24.21875 56 28.609375 56 
Q 40.484375 56 46.34375 49.84375 
Q 52.203125 43.703125 52.203125 31.203125 
z
" id="DejaVuSans-61"/>
      <path d="M 45.40625 27.984375 
Q 45.40625 37.75 41.375 43.109375 
Q 37.359375 48.484375 30.078125 48.484375 
Q 22.859375 48.484375 18.828125 43.109375 
Q 14.796875 37.75 14.796875 27.984375 
Q 14.796875 18.265625 18.828125 12.890625 
Q 22.859375 7.515625 30.078125 7.515625 
Q 37.359375 7.515625 41.375 12.890625 
Q 45.40625 18.265625 45.40625 27.984375 
z
M 54.390625 6.78125 
Q 54.390625 -7.171875 48.1875 -13.984375 
Q 42 -20.796875 29.203125 -20.796875 
Q 24.46875 -20.796875 20.265625 -20.09375 
Q 16.0625 -19.390625 12.109375 -17.921875 
L 12.109375 -9.1875 
Q 16.0625 -11.328125 19.921875 -12.34375 
Q 23.78125 -13.375 27.78125 -13.375 
Q 36.625 -13.375 41.015625 -8.765625 
Q 45.40625 -4.15625 45.40625 5.171875 
L 45.40625 9.625 
Q 42.625 4.78125 38.28125 2.390625 
Q 33.9375 0 27.875 0 
Q 17.828125 0 11.671875 7.65625 
Q 5.515625 15.328125 5.515625 27.984375 
Q 5.515625 40.671875 11.671875 48.328125 
Q 17.828125 56 27.875 56 
Q 33.9375 56 38.28125 53.609375 
Q 42.625 51.21875 45.40625 46.390625 
L 45.40625 54.6875 
L 54.390625 54.6875 
z
" id="DejaVuSans-67"/>
     </defs>
     <g transform="translate(22.254687 211.5405)rotate(-90)scale(0.1 -0.1)">
      <use xlink:href="#DejaVuSans-4d"/>
      <use x="86.279297" xlink:href="#DejaVuSans-65"/>
      <use x="147.802734" xlink:href="#DejaVuSans-6d"/>
      <use x="245.214844" xlink:href="#DejaVuSans-6f"/>
      <use x="306.396484" xlink:href="#DejaVuSans-72"/>
      <use x="347.509766" xlink:href="#DejaVuSans-79"/>
      <use x="406.689453" xlink:href="#DejaVuSans-20"/>
      <use x="438.476562" xlink:href="#DejaVuSans-75"/>
      <use x="501.855469" xlink:href="#DejaVuSans-73"/>
      <use x="553.955078" xlink:href="#DejaVuSans-61"/>
      <use x="615.234375" xlink:href="#DejaVuSans-67"/>
      <use x="678.710938" xlink:href="#DejaVuSans-65"/>
     </g>
    </g>
    <g id="text_15">
     <!-- 1e9 -->
     <defs>
      <path d="M 10.984375 1.515625 
L 10.984375 10.5 
Q 14.703125 8.734375 18.5 7.8125 
Q 22.3125 6.890625 25.984375 6.890625 
Q 35.75 6.890625 40.890625 13.453125 
Q 46.046875 20.015625 46.78125 33.40625 
Q 43.953125 29.203125 39.59375 26.953125 
Q 35.25 24.703125 29.984375 24.703125 
Q 19.046875 24.703125 12.671875 31.3125 
Q 6.296875 37.9375 6.296875 49.421875 
Q 6.296875 60.640625 12.9375 67.421875 
Q 19.578125 74.21875 30.609375 74.21875 
Q 43.265625 74.21875 49.921875 64.515625 
Q 56.59375 54.828125 56.59375 36.375 
Q 56.59375 19.140625 48.40625 8.859375 
Q 40.234375 -1.421875 26.421875 -1.421875 
Q 22.703125 -1.421875 18.890625 -0.6875 
Q 15.09375 0.046875 10.984375 1.515625 
z
M 30.609375 32.421875 
Q 37.25 32.421875 41.125 36.953125 
Q 45.015625 41.5 45.015625 49.421875 
Q 45.015625 57.28125 41.125 61.84375 
Q 37.25 66.40625 30.609375 66.40625 
Q 23.96875 66.40625 20.09375 61.84375 
Q 16.21875 57.28125 16.21875 49.421875 
Q 16.21875 41.5 20.09375 36.953125 
Q 23.96875 32.421875 30.609375 32.421875 
z
" id="DejaVuSans-39"/>
     </defs>
     <g transform="translate(57.6 38.472)scale(0.1 -0.1)">
      <use xlink:href="#DejaVuSans-31"/>
      <use x="63.623047" xlink:href="#DejaVuSans-65"/>
      <use x="125.146484" xlink:href="#DejaVuSans-39"/>
     </g>
    </g>
   </g>
   <g id="line2d_13">
    <path clip-path="url(#p1764449b4a)" d="M 73.832727 223.853482 
L 74.157707 223.301763 
L 74.807666 216.752321 
L 75.132645 226.060359 
L 75.457625 217.668887 
L 75.782604 219.591006 
L 76.107584 223.897976 
L 76.432563 224.173835 
L 76.757543 218.914705 
L 77.082523 224.227228 
L 77.407502 225.206084 
L 77.732482 224.752251 
L 78.057461 211.315217 
L 78.382441 223.906874 
L 78.70742 222.189426 
L 79.0324 223.159384 
L 79.357379 224.494188 
L 79.682359 228.703273 
L 80.332318 222.98141 
L 80.657297 227.146 
L 80.982277 220.338497 
L 81.307256 217.223952 
L 81.632236 220.17832 
L 81.957215 220.578761 
L 82.282195 215.05267 
L 82.607174 213.13945 
L 82.932154 213.424208 
L 83.257133 217.17056 
L 83.582113 210.959269 
L 83.907093 211.190635 
L 84.232072 210.363056 
L 84.557052 212.845793 
L 85.207011 209.686755 
L 85.53199 212.561035 
L 85.85697 211.760152 
L 86.181949 208.058294 
L 86.831908 215.693376 
L 87.481867 212.827996 
L 87.806847 209.891425 
L 88.131826 216.930295 
L 88.456806 212.142796 
L 88.781785 212.160593 
L 89.106765 216.503158 
L 89.431744 207.951509 
L 89.756724 213.815751 
L 90.081704 216.55655 
L 90.406683 208.182875 
L 90.731663 216.334083 
L 91.056642 207.043842 
L 91.381622 208.610013 
L 91.706601 212.881388 
L 92.031581 212.356365 
L 92.35656 208.761291 
L 92.68154 206.590008 
L 93.006519 203.466565 
L 93.331499 204.142866 
L 93.656478 212.819097 
L 93.981458 207.951509 
L 94.306437 207.729042 
L 94.631417 208.743493 
L 94.956396 211.769051 
L 95.281376 205.806923 
L 95.931335 208.83248 
L 96.256314 203.98269 
L 96.581294 207.595561 
L 96.906274 205.646746 
L 97.231253 207.168424 
L 97.556233 207.008247 
L 97.881212 207.444283 
L 98.206192 208.699 
L 98.531171 209.224023 
L 98.856151 202.229646 
L 99.18113 205.344191 
L 99.50611 206.937058 
L 99.831089 204.765775 
L 100.156069 209.277415 
L 100.481048 208.076091 
L 100.806028 208.618911 
L 101.131007 207.373094 
L 101.455987 207.506574 
L 101.780966 205.299697 
L 102.105946 208.182875 
L 102.430925 206.910362 
L 102.755905 209.891425 
L 103.080885 208.912569 
L 103.405864 204.267448 
L 103.730844 210.149488 
L 104.055823 208.529925 
L 104.380803 210.834687 
L 104.705782 208.156179 
L 105.030762 211.671165 
L 105.355741 206.011593 
L 105.680721 206.554414 
L 106.0057 209.624464 
L 106.33068 211.368609 
L 106.655659 205.41538 
L 106.980639 209.063846 
L 107.305618 205.014939 
L 107.630598 209.900324 
L 107.955577 203.475464 
L 108.280557 208.663405 
L 108.605536 209.428693 
L 108.930516 208.814683 
L 109.255495 207.88032 
L 109.580475 208.823582 
L 109.905455 208.200673 
L 110.230434 209.170631 
L 110.555414 208.681202 
L 110.880393 209.820236 
L 111.205373 205.157318 
L 111.530352 206.58111 
L 111.855332 206.50992 
L 112.180311 204.445422 
L 112.83027 198.4477 
L 113.15525 197.949373 
L 113.480229 205.753531 
L 113.805209 197.103996 
L 114.130188 198.127347 
L 114.455168 203.422072 
L 115.105127 197.771399 
L 115.430106 193.775883 
L 116.080066 205.646746 
L 116.405045 202.291937 
L 116.730025 201.669028 
L 117.055004 197.7625 
L 117.379984 197.095098 
L 117.704963 204.089474 
L 118.029943 200.725766 
L 118.354922 219.430829 
L 118.679902 223.11489 
L 119.004881 225.348463 
L 119.329861 228.471906 
L 119.97982 219.057084 
L 120.304799 229.860103 
L 120.629779 204.943749 
L 120.954758 220.970304 
L 121.279738 248.60966 
L 121.604717 247.897764 
L 121.929697 245.895557 
L 122.254676 245.299344 
L 122.579656 262.224667 
L 122.904636 257.179106 
L 123.229615 261.904314 
L 123.554595 262.260262 
L 123.879574 261.806429 
L 124.204554 256.351527 
L 124.529533 258.647391 
L 124.854513 256.315932 
L 125.179492 259.999993 
L 125.504472 257.988887 
L 126.154431 259.208009 
L 126.47941 263.292511 
L 126.80439 263.132335 
L 127.129369 246.963401 
L 127.454349 264.725202 
L 127.779328 259.314793 
L 128.104308 262.13568 
L 128.429287 257.481661 
L 129.079247 259.652944 
L 129.729206 259.394881 
L 130.054185 250.558475 
L 130.704144 262.972158 
L 131.029124 264.306963 
L 131.354103 262.064491 
L 131.679083 264.547228 
L 132.004062 261.637353 
L 132.329042 260.809774 
L 132.654021 264.146786 
L 132.979001 265.187934 
L 133.30398 261.583961 
L 133.62896 260.436029 
L 133.953939 257.116815 
L 134.278919 258.202456 
L 134.603898 256.173553 
L 134.928878 270.500456 
L 135.578837 266.985471 
L 135.903817 272.297993 
L 136.228796 265.730754 
L 136.553776 267.021066 
L 136.878755 264.306963 
L 137.203735 264.413747 
L 137.528714 263.862028 
L 137.853694 264.013306 
L 138.178673 272.609448 
L 138.503653 273.036585 
L 138.828632 270.411469 
L 139.153612 272.502663 
L 139.478591 262.126782 
L 139.803571 268.63173 
L 140.12855 262.331452 
L 140.45353 264.965466 
L 140.778509 265.357009 
L 141.103489 267.510494 
L 141.428468 268.827501 
L 141.753448 268.257985 
L 142.078428 264.885378 
L 142.728387 270.162306 
L 143.053366 261.468278 
L 143.378346 268.124504 
L 143.703325 268.275782 
L 144.028305 269.815257 
L 144.353284 268.053315 
L 144.678264 268.044416 
L 145.003243 266.798598 
L 145.328223 269.165652 
L 145.653202 261.085634 
L 145.978182 266.798598 
L 146.303161 265.944323 
L 146.628141 268.809704 
L 146.95312 269.156753 
L 147.2781 267.715164 
L 147.603079 295.488 
L 147.928059 286.001988 
L 148.253038 285.699432 
L 148.578018 289.899618 
L 148.902998 287.594855 
L 149.227977 283.056519 
L 149.552957 283.795111 
L 149.877936 281.294577 
L 150.202916 276.533774 
L 150.527895 277.92197 
L 150.852875 274.940907 
L 151.177854 279.648318 
L 151.502834 278.135539 
L 151.827813 278.81184 
L 152.152793 266.531637 
L 152.477772 265.054453 
L 152.802752 270.580545 
L 153.127731 269.637283 
L 153.452711 269.574992 
L 153.77769 268.880893 
L 154.10267 266.665118 
L 154.427649 265.819741 
L 154.752629 257.446067 
L 155.077609 260.765281 
L 155.402588 259.563957 
L 155.727568 256.974436 
L 156.052547 257.241397 
L 156.377527 255.079013 
L 156.702506 248.547369 
L 157.027486 251.893279 
L 157.352465 251.466142 
L 157.677445 248.627457 
L 158.002424 249.97116 
L 158.327404 249.508428 
L 158.652383 248.81433 
L 158.977363 243.047974 
L 159.302342 244.685334 
L 159.627322 235.395093 
L 159.952301 238.100298 
L 160.60226 215.702275 
L 160.92724 229.673231 
L 161.252219 227.395164 
L 161.577199 230.509708 
L 161.902179 205.611152 
L 162.552138 204.908154 
L 162.877117 211.697861 
L 163.202097 212.854692 
L 163.527076 211.688962 
L 163.852056 206.011593 
L 164.177035 206.670097 
L 164.502015 210.104994 
L 164.826994 210.549929 
L 165.151974 206.652299 
L 165.476953 210.905877 
L 165.801933 208.432039 
L 166.126912 210.069399 
L 166.776871 205.860315 
L 167.101851 205.913707 
L 167.42683 206.447629 
L 167.75181 208.618911 
L 168.07679 207.844725 
L 168.401769 208.262964 
L 168.726749 208.948163 
L 169.051728 205.646746 
L 169.376708 170.363409 
L 169.701687 169.758298 
L 170.351646 156.472542 
L 170.676626 159.56039 
L 171.001605 150.563807 
L 171.326585 147.031024 
L 171.651564 136.245802 
L 171.976544 76.900386 
L 172.301523 61.639119 
L 172.626503 62.03956 
L 172.951482 61.398854 
L 173.276462 55.952851 
L 173.601441 59.067395 
L 173.926421 60.802641 
L 174.2514 59.361052 
L 174.57638 60.064049 
L 174.90136 59.574621 
L 175.226339 53.568 
L 175.551319 67.245299 
L 175.876298 168.681556 
L 176.201278 172.321123 
L 176.526257 172.347819 
L 176.851237 172.899538 
L 177.176216 172.95293 
L 177.501196 169.998563 
L 177.826175 172.846146 
L 178.151155 167.934065 
L 178.476134 171.769404 
L 178.801114 165.57591 
L 179.126093 165.994149 
L 179.776052 171.466848 
L 180.101032 171.208786 
L 180.426011 165.736087 
L 180.750991 168.859529 
L 181.075971 151.302399 
L 181.40095 168.218823 
L 181.72593 164.9619 
L 182.050909 166.100933 
L 182.375889 168.370101 
L 182.700868 169.340059 
L 183.025848 166.350097 
L 183.350827 169.767197 
L 183.675807 168.71715 
L 184.000786 166.679348 
L 184.325766 171.431253 
L 184.650745 170.790547 
L 184.975725 170.746053 
L 185.300704 167.48913 
L 185.625684 170.274422 
L 185.950663 169.348958 
L 186.275643 169.411249 
L 186.600622 166.447982 
L 186.925602 166.029744 
L 187.250581 163.422425 
L 187.575561 165.762783 
L 188.22552 167.097587 
L 188.5505 165.762783 
L 188.875479 161.491408 
L 189.200459 159.489201 
L 189.525438 158.830697 
L 189.850418 159.124354 
L 190.175397 165.050887 
L 190.500377 159.142151 
L 190.825356 164.445775 
L 191.150336 163.466919 
L 191.475315 163.511412 
L 191.800295 160.797309 
L 192.125274 154.532626 
L 192.450254 156.979768 
L 192.775233 162.719428 
L 193.100213 159.934136 
L 193.425192 159.391315 
L 193.750172 163.813968 
L 194.075152 161.669382 
L 194.400131 162.274493 
L 195.37507 164.855115 
L 196.025029 163.529209 
L 196.350008 158.05651 
L 196.674988 157.771752 
L 196.999967 154.514829 
L 197.324947 160.45026 
L 197.649926 156.223379 
L 197.974906 157.024261 
L 198.299885 156.534833 
L 198.624865 154.897473 
L 198.949844 155.208927 
L 199.599803 155.11994 
L 199.924783 149.78962 
L 200.249762 153.438086 
L 200.574742 153.909717 
L 200.899722 151.462575 
L 201.224701 151.026539 
L 201.549681 148.178956 
L 201.87466 151.587157 
L 202.524619 144.957627 
L 202.849599 145.660624 
L 203.174578 145.055513 
L 203.499558 146.043268 
L 203.824537 142.154537 
L 204.149517 146.247938 
L 204.474496 142.830838 
L 204.799476 141.17568 
L 205.124455 138.087832 
L 205.449435 144.414806 
L 205.774414 144.379212 
L 206.099394 142.635067 
L 206.424373 142.528282 
L 206.749353 137.803074 
L 207.074333 149.095522 
L 207.399312 141.291363 
L 207.724292 144.655071 
L 208.049271 141.344756 
L 208.374251 144.752957 
L 208.69923 145.331372 
L 209.02421 139.734091 
L 209.349189 139.912065 
L 209.674169 157.549284 
L 209.999148 158.884089 
L 210.324128 158.225586 
L 210.649107 158.385762 
L 210.974087 156.303467 
L 211.624046 157.184438 
L 211.949025 156.107695 
L 212.274005 165.211063 
L 212.598984 165.130975 
L 212.923964 165.16657 
L 213.248943 164.730534 
L 213.573923 165.30005 
L 213.898903 169.918475 
L 214.223882 169.073098 
L 214.548862 169.873981 
L 214.873841 170.318916 
L 215.198821 170.034158 
L 215.5238 179.262107 
L 215.84878 205.522165 
L 216.173759 204.685687 
L 216.498739 204.87256 
L 216.823718 204.774674 
L 217.148698 205.89591 
L 217.473677 204.721282 
L 217.798657 204.694586 
L 218.123636 205.095027 
L 218.448616 205.878113 
L 218.773595 206.127276 
L 219.098575 205.646746 
L 219.748534 205.361988 
L 220.398493 205.264102 
L 220.723473 204.997141 
L 221.048452 205.068331 
L 221.373432 206.723489 
L 221.698411 205.07723 
L 222.023391 206.296351 
L 222.34837 204.925952 
L 222.67335 205.584456 
L 222.998329 205.121723 
L 223.323309 205.112825 
L 223.648288 205.468772 
L 223.973268 203.867007 
L 224.298247 203.422072 
L 224.623227 205.041635 
L 224.948206 203.733526 
L 225.273186 202.923745 
L 225.598165 203.377578 
L 225.923145 202.149558 
L 226.248124 202.505506 
L 226.573104 201.553345 
L 226.898084 202.087267 
L 227.223063 201.847002 
L 227.548043 204.036082 
L 227.873022 204.658991 
L 228.198002 204.196259 
L 228.522981 204.32084 
L 228.847961 204.32084 
L 229.17294 203.475464 
L 229.49792 203.769121 
L 229.822899 203.57335 
L 230.147879 204.409827 
L 230.472858 202.078369 
L 230.797838 203.858108 
L 231.122817 204.730181 
L 231.447797 203.840311 
L 231.772776 204.908154 
L 232.097756 203.680134 
L 232.422735 204.39203 
L 232.747715 201.722421 
L 233.072695 203.466565 
L 233.397674 203.021631 
L 233.722654 190.367682 
L 234.047633 190.154113 
L 234.372613 208.601114 
L 234.697592 210.692308 
L 235.022572 207.755738 
L 235.347551 209.410896 
L 235.672531 199.791403 
L 235.99751 209.65116 
L 236.32249 208.200673 
L 236.647469 210.896978 
L 236.972449 204.739079 
L 237.297428 206.91926 
L 237.622408 195.270865 
L 237.947387 193.419936 
L 238.272367 207.515473 
L 238.597346 205.157318 
L 238.922326 196.027254 
L 239.247305 207.800231 
L 239.572285 194.327603 
L 239.897265 208.556621 
L 240.222244 207.248512 
L 240.547224 195.77809 
L 240.872203 207.390891 
L 241.197183 206.759084 
L 241.522162 202.576696 
L 241.847142 208.28966 
L 242.172121 205.958201 
L 242.497101 207.337499 
L 242.82208 208.040496 
L 243.14706 207.622257 
L 243.472039 208.351951 
L 243.797019 206.723489 
L 244.121998 207.826927 
L 244.446978 205.192913 
L 244.771957 204.943749 
L 245.096937 189.646888 
L 245.421916 192.449977 
L 245.746896 199.835897 
L 246.071876 192.921608 
L 246.396855 199.67572 
L 246.721835 199.506645 
L 247.046814 191.355438 
L 247.371794 197.370957 
L 247.696773 198.305321 
L 248.021753 195.77809 
L 248.346732 207.497676 
L 248.671712 205.62005 
L 248.996691 204.934851 
L 249.321671 207.729042 
L 249.64665 209.170631 
L 249.97163 209.143935 
L 250.296609 208.672304 
L 250.621589 205.637848 
L 250.946568 207.53327 
L 251.271548 202.354228 
L 251.596527 188.997283 
L 251.921507 187.795959 
L 252.246486 200.663476 
L 252.571466 198.821445 
L 252.896446 198.572282 
L 253.221425 199.426557 
L 253.546405 184.111898 
L 253.871384 197.735804 
L 254.196364 197.673513 
L 254.521343 198.670167 
L 254.846323 188.525652 
L 255.171302 188.018426 
L 255.496282 186.372167 
L 255.821261 186.381066 
L 256.146241 185.037362 
L 256.47122 198.029461 
L 256.7962 185.144147 
L 257.121179 197.335363 
L 257.446159 197.771399 
L 257.771138 196.320911 
L 258.096118 200.538894 
L 258.421097 191.124072 
L 258.746077 200.076162 
L 259.071057 200.414312 
L 259.396036 190.332087 
L 259.721016 200.423211 
L 260.045995 199.088406 
L 260.370975 189.993937 
L 260.695954 188.374374 
L 261.020934 200.049465 
L 261.345913 200.618982 
L 261.670893 198.954926 
L 261.995872 199.097305 
L 262.320852 197.851487 
L 262.645831 186.256484 
L 262.970811 199.1329 
L 263.29579 198.65237 
L 263.62077 187.297631 
L 263.945749 196.080646 
L 264.270729 196.436594 
L 264.595708 195.315358 
L 264.920688 194.923815 
L 265.245667 192.645749 
L 265.570647 180.721494 
L 265.895627 192.992798 
L 266.220606 192.102928 
L 266.545586 193.517821 
L 266.870565 193.197468 
L 267.195545 182.527929 
L 267.520524 198.278625 
L 267.845504 198.305321 
L 268.170483 194.203021 
L 268.495463 195.146283 
L 268.820442 192.752533 
L 269.145422 198.429902 
L 269.470401 188.908296 
L 269.795381 193.161873 
L 270.12036 178.434528 
L 270.44534 190.31429 
L 270.770319 194.434387 
L 271.095299 193.446632 
L 271.420278 191.933853 
L 271.745258 178.817172 
L 272.070238 189.210851 
L 272.395217 183.836038 
L 272.720197 195.315358 
L 273.045176 193.437733 
L 273.370156 193.446632 
L 273.695135 191.684689 
L 274.020115 198.082853 
L 274.345094 195.635711 
L 274.670074 194.799234 
L 274.995053 192.850419 
L 275.320033 191.764778 
L 275.645012 176.806067 
L 275.969992 196.32981 
L 276.619951 192.254206 
L 276.94493 179.502372 
L 277.594889 196.276418 
L 277.919869 194.701348 
L 278.244848 194.158527 
L 278.569828 191.551209 
L 278.894808 197.397653 
L 279.219787 183.68476 
L 279.544767 182.127488 
L 279.869746 193.170772 
L 280.194726 194.496678 
L 280.519705 200.165149 
L 280.844685 187.137455 
L 281.169664 186.630229 
L 281.494644 184.761503 
L 281.819623 195.822584 
L 282.144603 202.861454 
L 282.469582 190.412176 
L 282.794562 200.574489 
L 283.444521 198.536687 
L 283.7695 184.307669 
L 284.09448 183.088547 
L 284.419459 187.99173 
L 284.744439 200.921538 
L 285.069419 188.454462 
L 285.394398 186.176395 
L 285.719378 196.605669 
L 286.044357 195.181878 
L 286.369337 184.521238 
L 286.694316 184.432251 
L 287.019296 184.16529 
L 287.344275 182.616916 
L 288.319214 181.486782 
L 288.644193 192.574559 
L 288.969173 188.436665 
L 289.294152 186.648026 
L 289.619132 190.483365 
L 289.944111 181.379997 
L 290.269091 178.799375 
L 290.91905 178.256554 
L 291.569009 196.73915 
L 291.893989 196.970516 
L 292.218968 195.253067 
L 292.543948 183.07075 
L 292.868927 181.985109 
L 293.193907 184.734806 
L 293.518886 196.320911 
L 293.843866 184.521238 
L 294.168845 194.514475 
L 294.493825 191.782575 
L 294.818804 191.168565 
L 295.143784 196.614568 
L 295.468763 188.481158 
L 295.793743 183.871633 
L 296.118722 184.111898 
L 296.443702 193.847073 
L 296.768681 180.908366 
L 297.093661 179.253209 
L 297.74362 194.710247 
L 298.0686 194.194122 
L 298.393579 193.081785 
L 298.718559 189.718077 
L 299.043538 197.006111 
L 299.368518 181.148631 
L 300.018477 180.098585 
L 300.343456 178.55911 
L 300.668436 183.933924 
L 301.318395 180.774886 
L 301.643374 179.422284 
L 301.968354 173.077512 
L 302.293333 192.076232 
L 302.618313 190.990591 
L 303.268272 186.425559 
L 303.593251 171.395658 
L 303.918231 178.852767 
L 304.24321 176.37003 
L 304.89317 177.571355 
L 305.218149 188.53455 
L 305.543129 189.201953 
L 306.518067 187.084063 
L 307.168026 182.127488 
L 307.493006 181.584667 
L 308.142965 177.731531 
L 308.467944 177.108622 
L 308.792924 186.247585 
L 309.117903 185.767055 
L 309.442883 185.989523 
L 309.767862 186.852697 
L 310.092842 174.065268 
L 310.417821 173.647029 
L 310.742801 173.780509 
L 311.067781 174.358925 
L 311.39276 174.581392 
L 311.71774 173.896192 
L 312.042719 186.345471 
L 312.367699 174.536899 
L 312.692678 186.639128 
L 313.342637 195.804787 
L 313.667617 194.923815 
L 313.992596 184.797097 
L 314.317576 181.958413 
L 314.642555 182.305462 
L 314.967535 181.70035 
L 315.292514 182.581322 
L 315.942473 182.705903 
L 316.267453 191.399931 
L 316.592432 192.049536 
L 316.917412 190.812617 
L 317.242391 190.759225 
L 317.567371 189.922747 
L 317.892351 179.715941 
L 318.21733 177.802721 
L 318.54231 177.509064 
L 319.192269 178.897261 
L 319.517248 187.751465 
L 319.842228 189.513407 
L 320.167207 196.748049 
L 320.492187 181.575769 
L 321.142146 180.499026 
L 321.467125 176.806067 
L 321.792105 183.586874 
L 322.117084 182.136387 
L 322.442064 181.735945 
L 322.767043 182.18088 
L 323.092023 181.709249 
L 323.417002 194.469982 
L 323.741982 192.654648 
L 324.066962 192.22751 
L 324.391941 188.240893 
L 324.716921 196.045051 
L 325.0419 182.260968 
L 325.36688 182.163083 
L 325.691859 181.575769 
L 326.016839 191.221957 
L 326.341818 183.400002 
L 326.666798 195.795888 
L 326.991777 182.430044 
L 327.316757 179.431183 
L 327.641736 179.484575 
L 327.966716 190.803718 
L 328.291695 197.620121 
L 328.616675 182.839384 
L 328.941654 193.677998 
L 329.266634 179.698143 
L 329.591613 179.635853 
L 329.916593 179.457879 
L 330.241572 180.080787 
L 330.566552 179.822725 
L 330.891532 179.867219 
L 331.216511 179.644751 
L 331.86647 176.975142 
L 332.19145 190.661339 
L 332.516429 178.22096 
L 332.841409 190.2431 
L 333.166388 189.655786 
L 333.491368 189.486711 
L 333.816347 191.453323 
L 334.141327 176.343334 
L 334.466306 174.465709 
L 334.791286 175.257693 
L 335.116265 174.421216 
L 335.441245 174.501304 
L 336.091204 174.04747 
L 336.416183 172.935133 
L 336.741163 174.590291 
L 337.066143 187.03067 
L 337.391122 186.443356 
L 337.716102 175.41787 
L 338.041081 186.585736 
L 338.366061 185.18864 
L 338.69104 187.431112 
L 339.01602 185.775954 
L 339.340999 188.783714 
L 339.665979 186.140801 
L 339.990958 176.592498 
L 340.315938 172.632577 
L 340.640917 174.002977 
L 340.965897 174.643683 
L 341.290876 173.860598 
L 341.615856 174.901745 
L 341.940835 173.442359 
L 342.265815 172.623679 
L 342.590794 186.496749 
L 342.915774 174.207647 
L 343.240753 186.710317 
L 343.565733 186.247585 
L 343.890713 187.110759 
L 344.215692 185.197539 
L 344.540672 184.975071 
L 344.865651 185.010666 
L 345.51561 170.808344 
L 345.84059 171.849492 
L 346.165569 170.247726 
L 346.490549 171.876188 
L 346.815528 174.198748 
L 347.140508 185.998422 
L 347.465487 186.977278 
L 347.790467 183.764848 
L 348.115446 173.691522 
L 348.440426 171.546936 
L 348.765405 173.91399 
L 349.090385 172.330022 
L 349.415364 172.61478 
L 349.740344 172.561388 
L 350.065324 173.29998 
L 350.390303 171.1109 
L 350.715283 172.703767 
L 351.040262 173.486852 
L 351.365242 173.255486 
L 351.690221 172.276629 
L 352.015201 184.957274 
L 352.34018 173.922889 
L 352.66516 173.673725 
L 352.990139 185.313222 
L 353.315119 186.452255 
L 353.640098 184.886084 
L 353.965078 186.576837 
L 354.290057 175.053023 
L 354.615037 175.239896 
L 354.940016 172.516894 
L 355.264996 172.694868 
L 355.589975 173.415663 
L 355.914955 173.8428 
L 356.239934 173.006323 
L 356.564914 172.801653 
L 356.889894 173.540245 
L 357.214873 172.249933 
L 357.539853 172.917336 
L 357.864832 172.61478 
L 358.189812 172.054162 
L 358.514791 173.549143 
L 358.839771 173.415663 
L 359.16475 174.519101 
L 359.48973 171.662619 
L 359.814709 185.18864 
L 360.139689 172.454603 
L 360.464668 184.343264 
L 360.789648 184.147492 
L 361.114627 169.47354 
L 361.439607 171.368962 
L 362.089566 161.304535 
L 362.414545 170.470194 
L 362.739525 165.57591 
L 363.064505 165.753884 
L 363.389484 166.234414 
L 363.714464 177.206508 
L 364.039443 166.67045 
L 364.364423 176.992939 
L 364.689402 174.608088 
L 365.014382 180.677 
L 365.339361 172.828349 
L 365.664341 160.37907 
L 365.98932 161.874052 
L 366.3143 171.137596 
L 366.639279 166.287806 
L 366.964259 156.855186 
L 367.289238 166.029744 
L 367.614218 166.884019 
L 367.939197 165.584809 
L 368.264177 162.683833 
L 368.589156 165.896263 
L 368.914136 177.802721 
L 369.239115 175.524654 
L 369.564095 164.597053 
L 369.889075 174.198748 
L 370.214054 174.714873 
L 370.864013 164.908508 
L 371.188993 175.684831 
L 371.513972 168.966314 
L 371.838952 173.513548 
L 372.163931 167.880673 
L 372.488911 176.51241 
L 372.81389 173.905091 
L 373.13887 167.453535 
L 373.463849 167.533623 
L 373.788829 154.968662 
L 374.113808 157.549284 
L 374.438788 174.554696 
L 374.763767 166.296704 
L 375.088747 168.147634 
L 375.413726 167.159878 
L 375.738706 175.782716 
L 376.063686 166.350097 
L 376.388665 162.77282 
L 376.713645 172.935133 
L 377.038624 162.585947 
L 377.363604 161.357927 
L 377.688583 167.96966 
L 378.013563 166.857322 
L 378.338542 173.068614 
L 378.663522 168.30781 
L 378.988501 175.00853 
L 379.313481 170.950723 
L 379.63846 164.445775 
L 379.96344 166.67045 
L 380.288419 162.781719 
L 380.613399 163.395729 
L 380.938378 160.832904 
L 381.588337 171.733809 
L 381.913317 175.560249 
L 382.238296 177.197609 
L 382.563276 180.979556 
L 383.213235 176.521308 
L 383.538215 179.315499 
L 383.863194 180.721494 
L 384.188174 171.342266 
L 384.513153 169.954069 
L 384.838133 162.194405 
L 385.163112 174.314431 
L 385.488092 158.928583 
L 385.813071 162.861807 
L 386.138051 170.612573 
L 386.46303 172.837247 
L 386.78801 171.555835 
L 387.112989 172.623679 
L 387.437969 172.080858 
L 387.762948 172.267731 
L 388.087928 172.89064 
L 388.412907 166.652652 
L 388.737887 172.588084 
L 389.062867 166.385691 
L 389.387846 168.423493 
L 389.712826 167.942964 
L 390.037805 165.469126 
L 390.362785 159.124354 
L 390.687764 160.912992 
L 391.337723 183.159737 
L 391.662703 182.768194 
L 391.987682 168.014153 
L 392.312662 177.064129 
L 392.637641 171.813897 
L 392.962621 172.125352 
L 393.2876 165.860668 
L 393.61258 162.43467 
L 393.937559 172.552489 
L 394.262539 172.445705 
L 394.587518 173.798307 
L 394.912498 170.176537 
L 395.237477 160.121008 
L 395.562457 183.195332 
L 395.887437 180.712595 
L 396.212416 182.510132 
L 396.537396 175.729324 
L 396.862375 186.247585 
L 397.187355 183.738152 
L 397.512334 175.355579 
L 397.837314 172.463502 
L 398.162293 164.045334 
L 398.487273 167.266663 
L 398.487273 167.266663 
" style="fill:none;stroke:#1f77b4;stroke-linecap:square;stroke-width:1.5;"/>
   </g>
   <g id="patch_3">
    <path d="M 57.6 307.584 
L 57.6 41.472 
" style="fill:none;stroke:#000000;stroke-linecap:square;stroke-linejoin:miter;stroke-width:0.8;"/>
   </g>
   <g id="patch_4">
    <path d="M 414.72 307.584 
L 414.72 41.472 
" style="fill:none;stroke:#000000;stroke-linecap:square;stroke-linejoin:miter;stroke-width:0.8;"/>
   </g>
   <g id="patch_5">
    <path d="M 57.6 307.584 
L 414.72 307.584 
" style="fill:none;stroke:#000000;stroke-linecap:square;stroke-linejoin:miter;stroke-width:0.8;"/>
   </g>
   <g id="patch_6">
    <path d="M 57.6 41.472 
L 414.72 41.472 
" style="fill:none;stroke:#000000;stroke-linecap:square;stroke-linejoin:miter;stroke-width:0.8;"/>
   </g>
   <g id="text_16">
    <!-- Memory usage vs Training Cycles -->
    <defs>
     <path d="M 2.984375 54.6875 
L 12.5 54.6875 
L 29.59375 8.796875 
L 46.6875 54.6875 
L 56.203125 54.6875 
L 35.6875 0 
L 23.484375 0 
z
" id="DejaVuSans-76"/>
     <path d="M -0.296875 72.90625 
L 61.375 72.90625 
L 61.375 64.59375 
L 35.5 64.59375 
L 35.5 0 
L 25.59375 0 
L 25.59375 64.59375 
L -0.296875 64.59375 
z
" id="DejaVuSans-54"/>
     <path d="M 9.421875 54.6875 
L 18.40625 54.6875 
L 18.40625 0 
L 9.421875 0 
z
M 9.421875 75.984375 
L 18.40625 75.984375 
L 18.40625 64.59375 
L 9.421875 64.59375 
z
" id="DejaVuSans-69"/>
     <path d="M 54.890625 33.015625 
L 54.890625 0 
L 45.90625 0 
L 45.90625 32.71875 
Q 45.90625 40.484375 42.875 44.328125 
Q 39.84375 48.1875 33.796875 48.1875 
Q 26.515625 48.1875 22.3125 43.546875 
Q 18.109375 38.921875 18.109375 30.90625 
L 18.109375 0 
L 9.078125 0 
L 9.078125 54.6875 
L 18.109375 54.6875 
L 18.109375 46.1875 
Q 21.34375 51.125 25.703125 53.5625 
Q 30.078125 56 35.796875 56 
Q 45.21875 56 50.046875 50.171875 
Q 54.890625 44.34375 54.890625 33.015625 
z
" id="DejaVuSans-6e"/>
    </defs>
    <g transform="translate(118.467031 35.472)scale(0.14 -0.14)">
     <use xlink:href="#DejaVuSans-4d"/>
     <use x="86.279297" xlink:href="#DejaVuSans-65"/>
     <use x="147.802734" xlink:href="#DejaVuSans-6d"/>
     <use x="245.214844" xlink:href="#DejaVuSans-6f"/>
     <use x="306.396484" xlink:href="#DejaVuSans-72"/>
     <use x="347.509766" xlink:href="#DejaVuSans-79"/>
     <use x="406.689453" xlink:href="#DejaVuSans-20"/>
     <use x="438.476562" xlink:href="#DejaVuSans-75"/>
     <use x="501.855469" xlink:href="#DejaVuSans-73"/>
     <use x="553.955078" xlink:href="#DejaVuSans-61"/>
     <use x="615.234375" xlink:href="#DejaVuSans-67"/>
     <use x="678.710938" xlink:href="#DejaVuSans-65"/>
     <use x="740.234375" xlink:href="#DejaVuSans-20"/>
     <use x="772.021484" xlink:href="#DejaVuSans-76"/>
     <use x="831.201172" xlink:href="#DejaVuSans-73"/>
     <use x="883.300781" xlink:href="#DejaVuSans-20"/>
     <use x="915.087891" xlink:href="#DejaVuSans-54"/>
     <use x="975.953125" xlink:href="#DejaVuSans-72"/>
     <use x="1017.066406" xlink:href="#DejaVuSans-61"/>
     <use x="1078.345703" xlink:href="#DejaVuSans-69"/>
     <use x="1106.128906" xlink:href="#DejaVuSans-6e"/>
     <use x="1169.507812" xlink:href="#DejaVuSans-69"/>
     <use x="1197.291016" xlink:href="#DejaVuSans-6e"/>
     <use x="1260.669922" xlink:href="#DejaVuSans-67"/>
     <use x="1324.146484" xlink:href="#DejaVuSans-20"/>
     <use x="1355.933594" xlink:href="#DejaVuSans-43"/>
     <use x="1425.757812" xlink:href="#DejaVuSans-79"/>
     <use x="1484.9375" xlink:href="#DejaVuSans-63"/>
     <use x="1539.917969" xlink:href="#DejaVuSans-6c"/>
     <use x="1567.701172" xlink:href="#DejaVuSans-65"/>
     <use x="1629.224609" xlink:href="#DejaVuSans-73"/>
    </g>
   </g>
  </g>
 </g>
 <defs>
  <clipPath id="p1764449b4a">
   <rect height="266.112" width="357.12" x="57.6" y="41.472"/>
  </clipPath>
 </defs>
</svg>
